<svg xmlns="http://www.w3.org/2000/svg" viewBox="0 0 384.21 472.78" style="width: 40px;">
	<defs>
		<style>
			.cls-1{fill:#1d1d1b;}
			.cls-1,.cls-2,.cls-3,.cls-4,.cls-5,.cls-6{fill-rule:evenodd;}
			.cls-2{fill:#e30613;}
			.cls-3{fill:#005ca9;}
			.cls-4{fill:#ededed;}
			.cls-5{fill:#fccd00;}
			.cls-6{fill:#f18819;}
		</style>
	</defs>
	<path class="cls-1" d="M64.94,113.91h50.93c-.05-.75-.08-1.5-.08-2.25-11.41-1.58-22.13-8.73-32.89-15.48q-15.65,7.38-20.56,16.54Q59,116.52,50.28,115q-7.41,5.86-2.93,15.22c6.21,13,12.94,17.43,15.87,33.38.72,4,1.3,8.07,1.72,12.19V113.91Zm46.42-42A60.68,60.68,0,0,0,104.16,56q-5.41-4.32-3.61-10.11c-2-9.33-6-15.34-10.84-19.86Q83,14.79,99.46,22.37q6.51-9.93,13,4.7,7.41-3.26,6.14,7.94,15.17,4.52,2.89,14.81c3.51,10.49-.59,12.53-5.78,13.36a33.76,33.76,0,0,0,2.53,9.38c7.46,5.72,10-1,10.15-14.08a6.41,6.41,0,1,1,6.15.06q.56,12,5,10.41c3.34,2.19,4.69-5.53,5-18.49a6.52,6.52,0,0,1-1.48.17,6.41,6.41,0,0,1-.12-12.81,6.41,6.41,0,1,1,10.46-.52,6.63,6.63,0,0,1,1-.08,6.41,6.41,0,0,1,0,12.82,6.66,6.66,0,0,1-1.62-.21c.53,10,1.9,17.7,6.27,17q4.58,2,5.84-13.48a6.4,6.4,0,1,1,5.24-.18c2,7.28,4.64,12.86,9.51,12.93q6,.56,9-22-17.33,13.73-11.55,0-13.54-4.15-2.53-12.64c-1.45-3.37-2.06-6.5,3.25-7.94q-6-20.23,6.86-10.11Q187-.34,191.54,0q4.54-.34,6.86,13.34,12.82-10.12,6.86,10.11c5.32,1.44,4.71,4.57,3.25,7.94q11,8.49-2.52,12.64,5.77,13.73-11.56,0,3.07,22.56,9,22c4.86-.07,7.52-5.65,9.5-12.93a6.41,6.41,0,1,1,5.24.18q1.28,15.52,5.84,13.48c4.37.74,5.74-7,6.27-17a6.52,6.52,0,0,1-1.61.21,6.41,6.41,0,1,1,0-12.82,6.5,6.5,0,0,1,1,.08,6.41,6.41,0,1,1,10.46.52A6.41,6.41,0,0,1,240,50.63a6.58,6.58,0,0,1-1.48-.17c.31,13,1.66,20.68,5,18.49q4.46,1.64,5-10.41a6.41,6.41,0,1,1,6.15-.06c.11,13.06,2.69,19.8,10.15,14.08a33.76,33.76,0,0,0,2.53-9.38c-5.19-.83-9.29-2.87-5.78-13.36Q249.32,39.52,264.48,35q-1.26-11.19,6.14-7.94,6.5-14.62,13-4.7Q300,14.8,293.37,26c-4.88,4.52-8.85,10.53-10.83,19.86q1.8,5.79-3.61,10.11a60.26,60.26,0,0,0-7.3,16.25c10.19-2.58,19.12-7.68,27.45-14q14.07-9.15,26.36,1.35a172.58,172.58,0,0,0,21.45,12.06c5.36,3.13,3.57,8.94,0,16.09q6.71,5.35,18.76,10.72c15.72,7.67,23,27.92,9.39,46.92-8.11,13.33-16,26.6-15.64,37.53l10.28-.45c18.82,12.93,16.12,35.29,9.83,59-8.42,32.4-7.82,64-3.13,95.18,5.29,30.65,6.94,55.31-4.47,58.53l-10.28-1.79c-5.05,14.16-11.44,27.86-27.25,38.43,1.49,3.72-.75,8.94-8.05,13C287,464.05,240.88,472.89,192.1,472.78c-48.77.11-94.87-8.73-134.23-28.07-7.29-4-9.53-9.24-8-13C34,421.18,27.62,407.48,22.57,393.32L12.3,395.11c-11.41-3.22-9.77-27.88-4.47-58.53,4.69-31.21,5.29-62.78-3.13-95.18-6.29-23.69-9-46.05,9.83-59l10.28.45c.31-10.93-7.53-24.2-15.64-37.53-13.63-19-6.33-39.25,9.38-46.92Q30.63,93.05,37.32,87.7c-3.57-7.15-5.36-13,0-16.09A172.58,172.58,0,0,0,58.77,59.55Q71.05,49,85.13,58.2c8,6.06,16.54,11,26.23,13.67ZM267.29,111.8c0,.7,0,1.41-.08,2.11h51V373.32c-.79,19.68-12.68,28-36.55,28.88H226c-15.07.47-26.2,3.95-34.42,13.57-8.23-9.62-19.36-13.1-34.43-13.57H101.5c-23.88-.88-35.77-9.2-36.56-28.88V209.22c-1.17,8.64-3.41,14.16-6.62,13.42H39.11q2.46,10.05,4.91,20.1,11.63,56.75,1.79,117.07l7.6,3.13c3,1.93,6.25,4.62,5.8,10.72,0,16.54,11.47,24.88,28.15,29.49q15.42-.22,13,10.28a15.35,15.35,0,0,0-.89,10.28c28.15,7.58,60.08,9.71,92.67,9.39,32.6.32,64.52-1.81,92.68-9.39a15.47,15.47,0,0,0-.89-10.28q-2.46-10.5,12.95-10.28C313.53,398.54,325,390.2,325,373.66c-.44-6.1,2.83-8.79,5.81-10.72l7.6-3.13q-9.84-60.31,1.79-117.07,2.44-10.05,4.91-20.1H325.89c-7.65,1.77-9.85-32.09-4.9-59.09,2.93-16,9.66-20.37,15.87-33.38q4.47-9.36-2.93-15.22-8.71,1.56-12.06-2.23-4.92-9.16-20.56-16.54c-11.12,7-22.18,14.37-34,15.62Z"></path>
	<path class="cls-2" d="M66.75,330.36V115.72h249.7V330a18.22,18.22,0,0,1-10.39-4.83c-4.53-4.05-8.71-6.22-12.91-6.3a13.86,13.86,0,0,0-7.06,1.89V262.35h2.6v-5.86h-2.6v-28.2h-4V200.52l9.38-13.32V159.77h-14v14.12H272V159.77H259.65v14.12h-5.44V159.77h-14V187.2l9.38,13.32v27.77H226.43v19H219.7v-19H195.13v19h-6.69v-19H163.87v19h-6.72v-19H134V200.52l9.38-13.32V159.77h-14v14.12h-5.45V159.77h-12.3v14.12h-5.45V159.77h-14V187.2l9.38,13.32v27.77h-4v28.2H94.89v5.86h2.59v58.33a16,16,0,0,0-14-.55,22.44,22.44,0,0,0-3.89,2.05,33.51,33.51,0,0,0-3.85,2.93h0a22.63,22.63,0,0,1-9,5.25ZM213,330.15a22.55,22.55,0,0,1-7.61-5c-6.35-5.95-13-7.75-19.47-5.08a19.75,19.75,0,0,0-3.75,2,27.7,27.7,0,0,0-3.67,3.05h0a22,22,0,0,1-7.87,5.28V284.6c0-12.06,9.53-21.93,21.19-21.94S213,272.54,213,284.6v45.55Z"></path>
	<path class="cls-3" d="M316.35,375l-.17,1.67-.23,1.61-.28,1.53-.35,1.47-.41,1.39-.47,1.34-.52,1.27-.59,1.21-.64,1.15-.71,1.09-.76,1-.83,1-.89.93-.95.88-1,.83-1.08.79-1.16.73-1.22.69-1.29.65-1.36.59-1.44.55-1.5.51-1.58.46-1.65.41-1.73.37-1.8.32-1.87.28-2,.24-2,.19-2.09.14-2.14.11H226l-1.45.05-1.4.07-1.39.09-1.36.11-1.34.14-1.32.15-1.3.17-1.28.2-1.26.22-1.24.25-1.22.27-1.21.29-1.18.32-1.16.35-1.15.38-1.12.4-1.11.43-1.08.46-1.07.49-1,.53-1,.55-1,.58-1,.62-1,.65-1,.68-.94.72-.91.75-.89.79-.88.82-.85.85-.28.3-.28-.3-.86-.85-.87-.82-.9-.79-.91-.75-.93-.72-.95-.68-1-.65-1-.62-1-.58-1-.55-1-.53-1.06-.49-1.09-.46-1.11-.43-1.12-.4-1.14-.38-1.17-.35-1.18-.32-1.2-.29-1.22-.27-1.24-.25-1.26-.22-1.29-.2-1.3-.17-1.32-.15-1.34-.14-1.36-.11-1.38-.09-1.41-.07-1.45-.05H101.54l-2.14-.11-2.09-.14-2-.19-2-.24-1.87-.28-1.8-.32L88,398.75l-1.65-.41-1.58-.46-1.51-.51-1.43-.55-1.37-.59-1.29-.65-1.22-.69-1.15-.73-1.09-.79-1-.83-1-.88-.88-.93-.83-1-.77-1-.7-1.09-.65-1.15-.58-1.21L68.75,384l-.47-1.34-.4-1.39-.35-1.47-.29-1.53L67,376.66,66.85,375l-.1-1.72V331.74a23.62,23.62,0,0,0,9.9-5.62h0a30.89,30.89,0,0,1,3.68-2.82A22,22,0,0,1,84,321.37c6.23-2.55,12.49-1.21,18.52,4.72,4.45,4.39,8.75,6.93,13.08,7.1s8.66-2,13.07-7.14c.39-.46.79-.89,1.18-1.3,3.66-3.76,7.38-5.38,11.07-5.27s7.45,1.95,11.12,5.11c.54.47,1.09,1,1.64,1.5,4.36,4.25,8.59,6.37,12.86,6.38s8.5-2.12,12.86-6.38h0a26.29,26.29,0,0,1,3.49-2.89,18.71,18.71,0,0,1,3.5-1.92c6-2.45,12.12-.74,18.05,4.82,4.39,4.12,8.52,6.15,12.78,6.13s8.55-2.07,13.29-6.11c4.49-3.82,8.46-5.57,12.2-5.49s7.26,2,10.88,5.47h0a24.45,24.45,0,0,0,3.42,2.74,20.73,20.73,0,0,0,3.72,2c6.63,2.68,14.16,1.59,20.57-4.71,4.16-4.1,8-6,11.82-5.94s7.75,2.13,12,6a19.38,19.38,0,0,0,11.28,5.18v42l-.1,1.72Z"></path>
	<path class="cls-4" d="M191.79,261.45l-1.13,0-1.14.1-.19,0-2.51-10h9.93l-2.5,10-.2,0-1.13-.1-1.13,0Zm93.1,60a30,30,0,0,0-4.52,3.71,21.23,21.23,0,0,1-5.08,3.75v-7.82h9.6v.36Zm-12.61,8.7a16.19,16.19,0,0,1-7.23.5v-.5Zm-8.43.26-1-.26h1v.26Zm-4-1.47a17.93,17.93,0,0,1-2.07-1.2c-.5-.33-1-.68-1.47-1.06v-5.59h17.8v7.85Zm-4.75-3.27-.55-.52h0a24.85,24.85,0,0,0-5.4-4.06h5.95v4.58Zm-9.36-5.94a13,13,0,0,0-3-.41,13.67,13.67,0,0,0-4.14.56H227.9V312h17.81v7.7Zm-10.15,1.36a30,30,0,0,0-5.91,4,35.31,35.31,0,0,1-3.83,2.87v-6.06h-2.31v-.85Zm-10.95,7.64-.4.22h-10V323.2h10.43v5.51Zm-3.11,1.42a13.13,13.13,0,0,1-4.28.77,12.6,12.6,0,0,1-3-.38v-.39Zm-52.1.65a11.72,11.72,0,0,1-2.86.35,12.36,12.36,0,0,1-4.79-1h7.65v.65Zm-10-1.85-.43-.27V323.2H169.4v5.73Zm-1.63-1.1a29.74,29.74,0,0,1-3.15-2.69c-.57-.55-1.13-1.07-1.7-1.56a30.66,30.66,0,0,0-3.34-2.51h10.49v.85h-2.3v5.91Zm-10.32-8a15.7,15.7,0,0,0-6.48-1.72,13,13,0,0,0-3.1.28V312h17.81v7.85Zm-10.78-1.12a14.57,14.57,0,0,0-2.67,1.12H119.73V312h16.93v6.73Zm-4.6,2.33a23.61,23.61,0,0,0-3.16,2.75l-.4.42v-3.17Zm-4.76,4.52a26.74,26.74,0,0,1-3.51,3.33h-14.3v-7.85H127.3v4.52ZM122,330.13a14.39,14.39,0,0,1-2.29,1.09v-1.09Zm-3.5,1.45a10.36,10.36,0,0,1-2.87.28,13.24,13.24,0,0,1-5.77-1.73h8.64v1.45Zm-10.58-2.66a34.4,34.4,0,0,1-4.49-3.78,25.8,25.8,0,0,0-4.77-3.78v-.29h9.6v7.85Zm144.23-91.31h5.27v-5.88h-5.27v5.88Zm38.05-63.76V168h-7.17v5.87ZM281.84,168h-3.23v5.87h3.23V168Zm-29.67,76.71h6.72v-5.88h-6.72v5.88Zm-1.4-20v3.64h1.4v2.23h6.72v-2.23h6.54v-3.64Zm30.07,3.64v-3.64h-14.2v3.64Zm-30.07-17.81v5.88h14.66v-5.88Zm15.87,5.88h14.2v-5.88h-14.2v5.88Zm-15.87-16.23v2.06h14.66v-5.88h-15v3.38l.31.44Zm15.87,2.06h14.2v-2.06l1-1.42v-2.4h-15.2v5.88ZM283.05,197l.48-.69h-.48V197Zm-33.79-.69h-1.18l1.18,1.67v-1.67ZM289.37,188l.85-1.2v-4.68h-7.17V188Zm-7.53-5.88h-15.2V188h15.2v-5.88Zm-16.41,0h-15V188h15v-5.88Zm-16.17,0H241.4v4.68l.84,1.2h7v-5.88Zm21.49-8.29V168h-4.11v5.87ZM265.43,168h-4.57v5.87h4.57V168ZM253,173.85V168h-2.54v5.87ZM249.26,168H241.4v5.87h7.86V168Zm9.38,69.63h.25v-5.88h-.25v5.88Zm-1.2,9.69v-1.4h-5.27v1.4Zm1.45-1.4h-.25v1.4h.25v-1.4ZM253,166.77V161H241.4v5.79Zm17.75,0V161h-9.89v5.79Zm19.47,0V161H278.61v5.79Zm0,14.17v-5.88H278.61v0h-3.43v5.84ZM274,175.1h-3.23v0h-9.89v0h-2.22v5.84H274V175.1Zm-16.54,0H253v0H241.4v5.88h16V175.1Zm26.94,20,4.14-5.88H275.18v5.88ZM274,189.23H258.64v5.88H274v-5.88Zm-16.54,0H243.09l4.14,5.88h10.21v-5.88Zm-6.67,14.16v5.88h6.67v-5.88Zm7.87,5.88H274v-5.88H258.64v5.88Zm16.54,0h5.66v-5.88h-5.66v5.88Zm-24.41,8.29v5.88h6.67v-5.88Zm7.87,5.88H274v-5.88H258.64v5.88Zm16.54,0h5.66v-5.88h-5.66v5.88Zm12.3,34.25H214.81l1.21,1.07-1.72,2.38h73.18v-3.45Zm-69-10.28v-7.86h-7.84v7.86Zm-9.05-7.86h-13.1v7.86h13.1v-7.86ZM225.82,312v4.41h-2.31v3.44h3.19V312Zm21.1,7.85h16.93V312H246.92v7.85Zm18.13,0h19.84V312H265.05v7.85Zm-41.54-26v1.87h2.31v6h.88V293.9Zm4.39,7.85h17.81V293.9H227.9v7.85Zm19,0h16.93V293.9H246.92v7.85Zm18.13,0h19.84V293.9H265.05v7.85Zm-42.64-26a28.77,28.77,0,0,1,.92,4.65c0,.38.08.77.1,1.16,0,.19,0,.38,0,.58h2.35v1.46h.88v-7.85Zm5.49,7.85h17.81v-7.85H227.9v7.85Zm19,0h16.93v-7.85H246.92v7.85Zm18.13,0h19.84v-7.85H265.05v7.85Zm-50.7-21.28a31.71,31.71,0,0,1,2.59,2.85l.25.32h1.61l.16-.14.49-.41.38.5,0,0h6.83v-3.17Zm13.55,3.17h17.81v-3.17H227.9v3.17Zm19,0h16.93v-3.17H246.92v3.17Zm18.13,0h19.84v-3.17H265.05v3.17Zm19.84-18.11v-7.86H265.05v7.86Zm-21-7.86H260.1v7.86h3.75v-7.86ZM251,247.41v-7.86h-4v7.86Zm-5.25-7.86H227.9v7.86h17.81v-7.86Zm-53.92,10.83h6.57l-.17.74-.62,2.68c1,.16,1.89.37,2.81.62v-5.81H183.2v5.81c.92-.25,1.85-.46,2.8-.62l-.62-2.68-.17-.74h6.58Zm9.79,4.39c.56.17,1.11.36,1.65.56s.8.31,1.16.46l.6.25,1.07-2.18.23-.48.51.18a23.14,23.14,0,0,1,5.7,2.9h6v-7.85H201.58v6.16Zm18.14,1.69h16.63v-7.85H219.72v7.85Zm17.84,0h17.51v-7.85H237.56v7.85Zm18.72,0h17.8v-7.85h-17.8v7.85Zm19,0h9.6v-7.85h-9.6v7.85Zm-54.55,10.27a24.16,24.16,0,0,1,1.67,2.92,38.29,38.29,0,0,1,1.69,4.14l.2.53-.52.23-.08,0h12.65v-7.85Zm16.82,7.85h17.51v-7.85H237.56v7.85Zm18.72,0h17.8v-7.85h-17.8v7.85Zm19,0h9.6v-7.85h-9.6v7.85Zm-49.47,10.26v5.65h-2.31v2.2h12.84v-7.85Zm11.74,7.85h17.51v-7.85H237.56v7.85Zm18.72,0h17.8v-7.85h-17.8v7.85Zm19,0h9.6v-7.85h-9.6v7.85ZM225.82,303v1.13h-2.31v4h2.31v2.7h10.53V303Zm11.74,7.86h17.51V303H237.56v7.86Zm18.72,0h17.8V303h-17.8v7.86Zm19,0h9.6V303h-9.6v7.86Zm9.6-72.46v-8.86h-9.6v8.86Zm-10.81-8.86h-14v8.86h14v-8.86ZM251,238.35v-8.86h-13.4v8.86Zm-14.61-8.86h-8.72v8.86h8.72v-8.86Zm-17.86,8.86v-8.86H201.58v8.86Zm-18.11-8.86h-4v8.86h4v-8.86Zm-4.94,32.28.84.16,1.08.26,1.07.31,1,.37,1,.42.88.41,3.22-6.52-.66-.28c-.39-.16-.76-.31-1.12-.44a31,31,0,0,0-5.66-1.51l-1.71,6.82Zm7,2.49h0l.93.56.91.6.88.65.85.69.81.72,7.14-8.28a20.8,20.8,0,0,0-6.92-4.28l-4.61,9.33Zm5.24,4.08.67.73.71.84.66.88.63.9.58.94.12.21,5.79-5.79-.21-.29L216,266a29.69,29.69,0,0,0-3.26-3.47l-5.06,5.86Zm4,5.61.33.65.44,1,.41,1.05.23.7,9.61-4c-.39-1.05-.82-2.1-1.33-3.15a23,23,0,0,0-2.07-3.47l-1.15,1-.52.45-.06-.09L211.64,274Zm1.75,4.58.08.31.25,1.11.2,1.14.14,1.15,0,.27h8.2c0-.27,0-.55-.05-.84s-.06-.74-.1-1.11a27.73,27.73,0,0,0-1.11-5.24l-7.63,3.21Zm.77,5.19,0,.86v4.56h10.43v-5.42Zm0,6.63v5.58h8.13v-5.58Zm0,6.78v5.58h10.43v-5.58Zm0,6.78v4.37h8.13v-4.37Zm0,5.58v5.57h10.43v-5.57Zm0,6.78V322h8.13v-5.73Zm-82.77-78.66h-5.27v-5.88h5.27v5.88Zm-38-63.76V168h7.16v5.87Zm8.37-5.87H105v5.87h-3.23V168Zm29.68,76.71h-6.73v-5.88h6.73v5.88Zm1.39-20v3.64h-1.39v2.23h-6.73v-2.23h-6.54v-3.64Zm-30.06,3.64v-3.64h14.2v3.64Zm30.06-17.81v5.88H118.14v-5.88Zm-15.86,5.88h-14.2v-5.88h14.2v5.88Zm15.86-16.23v2.06H118.14v-5.88h15v3.38l-.31.44Zm-15.86,2.06h-14.2v-2.06l-1-1.42v-2.4h15.21v5.88ZM100.52,197l-.48-.69h.48V197Zm33.8-.69h1.17L134.32,198v-1.67ZM94.2,188l-.84-1.2v-4.68h7.16V188Zm7.53-5.88h15.21V188H101.73v-5.88Zm16.41,0h15V188h-15v-5.88Zm16.18,0h7.86v4.68l-.85,1.2h-7v-5.88Zm-21.5-8.29V168h4.12v5.87Zm5.32-5.87h4.57v5.87h-4.57V168Zm12.43,5.87V168h2.54v5.87Zm3.75-5.87h7.86v5.87h-7.86V168Zm-9.39,69.63h-.25v-5.88h.25v5.88Zm1.21,9.69v-1.4h5.27v1.4Zm-1.46-1.4h.25v1.4h-.25v-1.4Zm5.89-79.13V161h11.61v5.79Zm-17.75,0V161h9.89v5.79Zm-19.46,0V161H105v5.79Zm0,14.17v-5.88H105v0h3.43v5.84Zm16.24-5.84h3.22v0h9.89v0h2.22v5.84H109.6V175.1Zm16.54,0h4.43v0h11.61v5.88h-16V175.1Zm-26.95,20-4.14-5.88h13.34v5.88Zm10.41-5.88h15.33v5.88H109.6v-5.88Zm16.54,0h14.34l-4.14,5.88h-10.2v-5.88Zm6.66,14.16v5.88h-6.66v-5.88Zm-7.87,5.88H109.6v-5.88h15.33v5.88Zm-16.54,0h-5.65v-5.88h5.65v5.88Zm24.41,8.29v5.88h-6.66v-5.88Zm-7.87,5.88H109.6v-5.88h15.33v5.88Zm-16.54,0h-5.65v-5.88h5.65v5.88Zm-12.3,34.25h72.68l-1.21,1.07,1.71,2.38H96.09v-3.45Zm69-10.28v-7.86h7.85v7.86Zm9-7.86h13.11v7.86H174.13v-7.86ZM157.76,312v4.41h2.3v3.44h-3.18V312Zm-39.24,7.85H98.68V312h19.84v7.85Zm41.54-26v1.87h-2.3v6h-.88V293.9Zm-4.39,7.85H137.86V293.9h17.81v7.85Zm-19,0H119.73V293.9h16.93v7.85Zm-18.14,0H98.68V293.9h19.84v7.85Zm42.64-26a28.75,28.75,0,0,0-.91,4.65c-.05.38-.08.77-.11,1.16,0,.19,0,.38,0,.58h-2.34v1.46h-.88v-7.85Zm-5.49,7.85H137.86v-7.85h17.81v7.85Zm-19,0H119.73v-7.85h16.93v7.85Zm-18.14,0H98.68v-7.85h19.84v7.85Zm50.71-21.28a30.38,30.38,0,0,0-2.6,2.85l-.25.32h-1.61l-.16-.14-.48-.41-.39.5,0,0h-6.82v-3.17Zm-13.56,3.17H137.86v-3.17h17.81v3.17Zm-19,0H119.73v-3.17h16.93v3.17Zm-18.14,0H98.68v-3.17h19.84v3.17ZM98.68,247.41v-7.86h19.84v7.86Zm21-7.86h3.75v7.86h-3.75v-7.86Zm12.88,7.86v-7.86h4v7.86Zm5.25-7.86h17.81v7.86H137.86v-7.86ZM182,254.77c-.55.17-1.1.36-1.65.56s-.79.31-1.16.46l-.6.25-1.06-2.18-.24-.48-.5.18a23.39,23.39,0,0,0-5.71,2.9h-6v-7.85H182v6.16Zm-18.13,1.69H147.22v-7.85h16.64v7.85Zm-17.84,0H128.5v-7.85H146v7.85Zm-18.72,0H109.49v-7.85H127.3v7.85Zm-19,0h-9.6v-7.85h9.6v7.85Zm54.56,10.27a24.27,24.27,0,0,0-1.68,2.92,42.84,42.84,0,0,0-1.69,4.14l-.19.53.52.23.07,0H147.22v-7.85ZM146,274.58H128.5v-7.85H146v7.85Zm-18.72,0H109.49v-7.85H127.3v7.85Zm-19,0h-9.6v-7.85h9.6v7.85Zm49.48,10.26v5.65h2.3v2.2H147.22v-7.85ZM146,292.69H128.5v-7.85H146v7.85Zm-18.72,0H109.49v-7.85H127.3v7.85Zm-19,0h-9.6v-7.85h9.6v7.85ZM157.76,303v1.13h2.3v4h-2.3v2.7H147.22V303ZM146,310.81H128.5V303H146v7.86Zm-18.72,0H109.49V303H127.3v7.86Zm-19,0h-9.6V303h9.6v7.86Zm-9.6-72.46v-8.86h9.6v8.86Zm10.81-8.86h14v8.86h-14v-8.86Zm23.12,8.86v-8.86H146v8.86Zm14.61-8.86h8.72v8.86h-8.72v-8.86Zm17.86,8.86v-8.86H182v8.86Zm18.12-8.86h4v8.86h-4v-8.86Zm4.93,32.28-.83.16-1.09.26-1.06.31-1,.37-1,.42-.89.41L179,257.18l.67-.28,1.11-.44a31.22,31.22,0,0,1,5.66-1.51l1.71,6.82Zm-7,2.49h0l-.94.56-.91.6-.88.65-.84.69-.81.72-7.15-8.28a21,21,0,0,1,6.93-4.28l4.61,9.33Zm-5.25,4.08-.67.73-.7.84-.67.88-.62.9-.59.94-.11.21-5.79-5.79a2.64,2.64,0,0,1,.21-.29c.21-.29.42-.56.62-.81a29.78,29.78,0,0,1,3.27-3.47l5,5.86Zm-4,5.61-.32.65-.45,1-.4,1.05-.23.7-9.61-4a32.56,32.56,0,0,1,1.33-3.15,22.91,22.91,0,0,1,2.06-3.47l1.15,1,.52.45.06-.09,5.89,5.89Zm-1.74,4.58-.09.31-.25,1.11-.2,1.14-.14,1.15,0,.27h-8.2c0-.27,0-.55.05-.84s.06-.74.1-1.11a28.54,28.54,0,0,1,1.11-5.24l7.64,3.21Zm-.77,5.19,0,.86v4.56H159v-5.42Zm0,6.63v5.58h-8.14v-5.58Zm0,6.78v5.58H159v-5.58Zm0,6.78v4.37h-8.14v-4.37Zm0,5.58v5.57H159v-5.57Zm0,6.78V322h-8.14v-5.73Z"></path>
	<path class="cls-1" d="M200.6,182.87c.93.1,2.34,1.17,1.35-2.57,9.06,4.33,2.8,18.79-4,20.27.29-1.12.86-2.25,0-3.38a32.13,32.13,0,0,1-4.33,1.37V177.13c3.69-.48,6-2.4,6.22-4.4.16-2.6-1.54-4.65-6.22-5.07V152.11a15.21,15.21,0,0,1,4.06,2.25c2.07,2.56,1.21,4.82-1.76,5.94,1.26,0,2.93-.45,4.19-.4.63,2.59-1.17,4.3-2.7,5.81,4.86-.82,8.3-2.54,8.61-6.82a10,10,0,0,0-6-10.33,17.7,17.7,0,0,0-4.08-1.31l2.6-4.25c3.29-2.33,3.41-6.68-.5-9.39a4.83,4.83,0,0,0-5.4.22,1.55,1.55,0,0,0,.08-.53,1.8,1.8,0,0,0-1-1.62v-1h1.57v-1.5h-1.57v-1.56h-1.5v1.56h-1.56v1.5h1.56v1A1.81,1.81,0,0,0,189,133.3a1.55,1.55,0,0,0,.08.53,4.83,4.83,0,0,0-5.4-.22c-3.91,2.71-3.79,7.06-.5,9.39l2.88,4.69H187a8.42,8.42,0,0,0-3.84,2.61c-.09-1.12.22-2.11.13-3.24-7,6.4-8.87,14.32-4.73,24.32-6.75,5.49-9.83,14-4.28,24.26.39.73.79,1.42,1.22,2.08-2.12-.13-3.41-1.75-4.67-3.43-.05,2.38-.1,5.26,1.9,6.41a6.59,6.59,0,0,0,5.55.57,18.5,18.5,0,0,0,4.69,3.49,22.36,22.36,0,0,0,16.07,1.62c5.92-1.46,9.56-3.6,11.87-9.47,2.83-7.2,2.24-16.82-4.37-20.26q-4.8-2.22-8,1.49c-1.12,1.94-.45,3.51,2,4.73Zm-12.43,7.49a40.91,40.91,0,0,1-4.83,7.13,9.89,9.89,0,0,0,4.83,1.6v-8.73ZM181,195.27a43.8,43.8,0,0,0,7.22-9.36v-9.07a25.47,25.47,0,0,1-6.62-2.48c-3.51,5.44-4.61,11.63-2.71,17.43a17.15,17.15,0,0,0,2.11,3.48Zm7.22-27.49a57.45,57.45,0,0,0-6.22,1c-1.21-5.32-.36-9,4.19-11.08l-3-2.44a11.5,11.5,0,0,1,5-3.38v15.86Zm5.4,3.14v2.72c1.26,0,2-.44,2-1.31.22-.86-.46-1.33-2-1.41Zm-5.4,1.77v-1.26c-.8.14-1.65.3-2.57.49.9.29,1.76.55,2.57.77Z"></path>
	<path class="cls-5" d="M191.76,176.5h.66l.64-.05.61-.07.58-.1.55-.12a10.39,10.39,0,0,0,2.27-.92l.35-.24.32-.24.29-.25.25-.26.22-.27.17-.26.15-.27.11-.27.08-.26,0-.25V172l0-.3-.07-.29-.08-.28-.12-.27-.13-.25a4.37,4.37,0,0,0-1.86-1.51l-.41-.17-.46-.15-.51-.14-.54-.11-.6-.1-.64-.07h0v1.79h.23l.31,0,.29,0,.27.06.26.07.25.08.24.1.21.13.21.15.18.19.15.21.12.24.06.26,0,.26,0,.25,0,.18,0,.21-.07.27-.11.26-.15.24-.18.22-.21.18-.23.15-.25.12-.25.1-.27.07-.29.05-.29,0-.31,0h-.65l-.34,0-.36,0-.37,0-.39-.05-.4-.07-.42-.07-.42-.09-.45-.1-.45-.1-.47-.12-.48-.12-.49-.14-.5-.14c-2.16-.63-4.84-1.12-5.86-3.26a12.72,12.72,0,0,1-.93-5.31v-.43l0-.43.05-.42a8,8,0,0,1,2.06-4.34l.3-.29.32-.28.34-.27.36-.26.38-.25.24-.13-.25-.21-.09-.07-.28-.23-.1-.08-.09-.07-.09-.08-.19-.15-.74-.61-.89-.73,1-1,.42-.41.43-.39a14.4,14.4,0,0,1,2.69-1.81l.46-.21.47-.18.48-.16.15,0V148.1h0l-.5.14-.48.17-.46.18-.44.21a11.86,11.86,0,0,0-3.69,3.34l-.13-1.91v-1.33h0l-.46.49-.53.62-.51.62-.47.62-.44.64a22.53,22.53,0,0,0-1.46,2.63l-.29.68-.26.69-.22.7-.2.71-.16.72-.13.73a21.37,21.37,0,0,0,0,5.42l.12.82.16.83.19.85.23.86.26.87a8.45,8.45,0,0,0,1.51,3.1,11.05,11.05,0,0,0,4.87,3.49l.88.34.86.28.84.25.81.2.8.16.76.13.75.08.72,0,.69,0Zm-5.59-29.68-.09-.15-.27-.44-.09-.14-.63-1-.09-.15-.27-.43-.09-.15-.27-.44-.09-.15-.56-.91h14.22l-.56.91-.09.15-.27.44-.09.15-.27.43-.09.15-.63,1-.09.14-.27.44-.09.15-.21.33h-8.9l-.21-.33Zm4.51-18.68h.43v1.57h1.56v.43h-1.56v1.56h-.43v-1.56h-1.57v-.43h1.57v-1.57Zm.15,6.44a1.28,1.28,0,1,0-1.28-1.28,1.28,1.28,0,0,0,1.28,1.28Zm7.67,7.71.19-.15.23-.23.23-.23.2-.24.18-.25.17-.25.15-.26.13-.27.11-.27.09-.27.08-.28.05-.28,0-.28,0-.28v-.58l0-.29-.06-.28-.07-.29-.1-.29-.11-.29-.14-.28-.15-.29-.18-.28-.2-.27-.22-.28-.24-.26-.26-.27-.29-.25-.31-.25-.31-.23-.27-.13-.29-.13-.28-.11-.28-.08-.27-.08-.26,0-.26,0-.25,0H195l-.24,0-.23,0-.23.05-.23.07-.22.08-.22.1-.22.11-.21.12-.21.13-.19.14c-.37,1.15-.7,2.38-1,3.68s-.58,2.8-.82,4.3ZM192.07,135,192,135l-.19.2-.2.21-.18.23-.19.23-.18.24-.18.25,0,.07-.05-.07-.18-.25-.18-.24-.19-.23-.18-.23-.2-.21-.19-.2-.2-.19-.2-.19h0c.3,1,.58,2.11.84,3.24s.43,2,.62,3.07c.18-1.06.39-2.08.61-3.07s.48-2,.75-2.92Zm-3.55-.86-.09-.05-.21-.12-.22-.11-.22-.1-.22-.08-.23-.07-.23-.05-.23,0-.24,0h-.48l-.26,0-.25,0-.27,0-.27.08-.28.08-.28.11-.29.13-.27.13-.31.23-.31.25-.29.25-.26.27-.24.26-.22.28-.2.27-.18.28-.15.29-.14.28-.11.29-.1.29-.07.29-.06.28,0,.29v.58l0,.28,0,.28.05.28.08.28.09.27.11.27.13.27.15.26.17.25.18.25.21.24.22.23.24.23.18.15h7.23c-.24-1.5-.51-2.94-.82-4.3s-.66-2.68-1-3.9Zm-16.94,62.29.09.09.19.21.21.19.21.2.21.18.23.17.23.17.25.16.25.14a5.47,5.47,0,0,0,1.72.54l.32,0h.67l.35,0,.35,0,.37-.08.37-.1c.41-.13.81-.28,1.21-.44l.38-.23.35-.22.34-.23.34-.25.35-.26.33-.28.34-.29.34-.3.33-.31.34-.33.33-.34.33-.35.33-.36a43.8,43.8,0,0,0,2.93-3.71l.32-.46.32-.46.32-.48.32-.48.32-.49.26-.4V189l-.5.92-.57,1-.58,1a45.74,45.74,0,0,1-2.74,4l-.52.65-.52.59-.51.55-.5.49-.49.45a12.25,12.25,0,0,1-2.33,1.58l-.44.19-.43.16-.42.12a6.83,6.83,0,0,1-1.63.16l-.4,0-.39-.06-.4-.1c-1.71-.52-2.55-1.14-2.93-2.89l0-.2,0-.2,0-.21,0-.21,0-.22,0-.22v-.17Zm21.26-48.69v25.93a22.4,22.4,0,0,1-3.94-.73v-25.2h3.94Zm0,29.51v21.52a17.31,17.31,0,0,1-3.94.4V177a15.94,15.94,0,0,0,3.94.22Zm.72-25.87.4.14.51.2.51.22.51.25a9.32,9.32,0,0,1,2.91,2l.19.26.17.27.15.26.14.27.12.26.1.27.08.26.07.27.05.26,0,.27v.52l0,.26-.05.26-.07.24-.08.25-.11.23-.12.23-.14.22-.16.21v0l.11,0H199l.14,0h.28c1.54-.1,2.93-1.64,1.88-6.43a9.51,9.51,0,0,1,1.12,3.81c.2,1.91-1.08,4.23-1.82,6.19l-.09.22-.11.21-.1.21-.12.2-.12.19-.13.19-.13.19-.14.18-.11.15.21-.06.37-.11.37-.12.35-.13.35-.13.33-.14.31-.15.3-.15.29-.16a6.09,6.09,0,0,0,2.13-2.06l.14-.26.12-.27.11-.28.1-.3.08-.31.07-.32,0-.35a11.67,11.67,0,0,0-.33-4.16l-.11-.34-.12-.34-.13-.33-.15-.32-.15-.31-.17-.31-.18-.3-.2-.29-.2-.28-.22-.28-.23-.27-.25-.26-.25-.25-.27-.25-.28-.24-.3-.23-.3-.22L201,150l-.34-.2a16.9,16.9,0,0,0-3.68-1.52l-.56-.14-.56-.12-.56-.11-.57-.1-.58-.07-.42,0h-.21v3.64Zm-5.39,17.19-.39,0c-2,.26-3.54.44-5.5.85a3.45,3.45,0,0,0,.14.34,3.16,3.16,0,0,0,1.8,1.62c1.18-.25,2-.32,3.15-.55l.59-.1.21,0v-2.16Zm-9,3.35-.71.59-.58.53a20.55,20.55,0,0,0-4.08,5.4l-.31.67-.28.68-.25.7-.21.72a17.89,17.89,0,0,0-.56,4.55l0,.81.07.82a24.37,24.37,0,0,0,2.18,7l.49.94.19.35.2.35.2.35.21.34.2.34.21.33.22.33h0a7.72,7.72,0,0,0,2.11-.61,12.54,12.54,0,0,0,1.91-1.34l-.31-.4-.36-.51-.34-.51a15.16,15.16,0,0,1-2.14-6.89l0-.58V185.7a22.84,22.84,0,0,1,.47-4l.13-.57.15-.56.17-.57.18-.56.19-.56.21-.56.23-.56.24-.55.26-.54.27-.55.29-.54.3-.53.32-.54.43-.68a12.16,12.16,0,0,1-1.82-1.84l-.07-.09ZM179,201l.23.22.27.25.28.25.28.25.29.24A19.76,19.76,0,0,0,185,204.9l.43.18.45.16.44.15.45.14a23.4,23.4,0,0,0,3.28.71l.49.06.49,0,.5,0,.5,0,.5,0h1l.52,0,.52,0,.52-.05.52-.05.53-.07.54-.08.53-.09.54-.11.55-.12a34.51,34.51,0,0,0,3.57-1l.46-.17a13.59,13.59,0,0,0,5.42-3.66l.28-.35.27-.36.26-.39.26-.39.25-.42.24-.44.24-.45.22-.48.22-.5.22-.52.24-.66.23-.67.21-.69.18-.69a21.49,21.49,0,0,0,.32-9.1l-.15-.65-.18-.64-.2-.62a13.83,13.83,0,0,0-1.44-2.78l-.37-.49-.41-.46-.43-.44a9.18,9.18,0,0,0-2.83-1.77l-.27-.09-.26-.08-.25-.07-.26-.06-.24,0-.25,0-.24,0h-.91l-.22,0-.22,0-.21.05-.22,0-.2.07-.21.07-.2.09-.2.1-.2.1-.2.12-.19.13-.2.14-.19.15-.19.16-.19.17-.19.18-.18.2a2,2,0,0,0-.07,2.6l.09.11.11.11.12.11.13.11.14.11.15.11.16.11.18.11.19.1.19.11.12.06.1,0,.11,0,.11,0,.1,0,.09,0,.09,0,.07,0h.05V182l0-.18,0-.21,0-.24-.06-.26-.07-.3-.5-2,2.32,1.26.78.53a9.19,9.19,0,0,1,2.61,3.44l.28.8a13,13,0,0,1,0,6l-.23.86-.27.85-.33.83-.36.82-.41.79a16.65,16.65,0,0,1-3.76,4.59l-.64.47-.66.41-.69.35-.7.27-1.91.53.35-1.35,0-.11,0-.11,0-.11,0-.11,0-.1,0-.11,0-.1,0-.1,0-.09,0-.1,0-.09,0-.09,0-.09,0-.09v-.6l0-.07v-.1l-.47.18-1.05.35-1,.31-1,.26-.93.22-.9.17-.87.13-.84.09-.81,0h-.78l-.75,0-.72-.07a13.46,13.46,0,0,1-3.2-.9l-.57-.29-.53-.31-.33-.22A12.74,12.74,0,0,1,179,201Z"></path>
	<path class="cls-1" d="M90.38,346.67a13.71,13.71,0,1,1-13.7,13.7,13.7,13.7,0,0,1,13.7-13.7Zm203,0a13.71,13.71,0,1,1-13.7,13.7,13.71,13.71,0,0,1,13.7-13.7Zm-50.74,0a13.71,13.71,0,1,1-13.7,13.7,13.71,13.71,0,0,1,13.7-13.7Zm-50.73,0a13.71,13.71,0,1,1-13.71,13.7,13.71,13.71,0,0,1,13.71-13.7Zm-50.74,0a13.71,13.71,0,1,1-13.7,13.7,13.71,13.71,0,0,1,13.7-13.7Z"></path>
	<path class="cls-5" d="M90.38,347.68H91l.65.05.63.08.63.11.61.15.61.17.59.2.57.22.56.26.55.28.53.3.52.33.5.36.48.38.46.39.44.43.42.44.4.46.38.48.35.5.33.51.31.53.28.55.25.56.23.58.2.59.17.6.14.61.11.63.08.63,0,.65,0,.65,0,.66,0,.64-.08.64-.11.62-.14.62-.17.6-.2.59-.23.58-.25.56-.28.55-.31.53-.33.51-.35.5-.38.48-.4.46-.42.44-.44.42-.46.4-.48.38-.5.35-.52.33-.53.31-.55.28-.56.25-.57.23-.59.2-.61.17-.61.14-.63.12-.63.08-.65.05h-1.3l-.65-.05-.64-.08-.62-.12-.61-.14-.61-.17-.59-.2-.57-.23-.56-.25-.55-.28-.53-.31-.52-.33-.5-.35-.48-.38-.46-.4-.44-.42-.42-.44-.4-.46L80.2,368l-.35-.5-.33-.51-.31-.53-.28-.55-.25-.56-.23-.58-.2-.59-.17-.6-.14-.62-.11-.62-.08-.64,0-.64,0-.66,0-.65,0-.65.08-.63.11-.63.14-.61.17-.6.2-.59.23-.58.25-.56.28-.55.31-.53.33-.51.35-.5.38-.48.4-.46.42-.44.44-.43.46-.39.48-.38.5-.36.52-.33.53-.3.55-.28.56-.26.57-.22.59-.2.61-.17.61-.15.62-.11.64-.08.65-.05Zm203,0H294l.64.05.64.08.62.11.62.15.6.17.59.2.57.22.57.26.54.28.54.3.51.33.5.36.48.38.46.39.44.43.42.44.4.46.38.48.35.5.33.51.31.53.28.55.25.56.23.58.2.59.17.6.14.61.11.63.09.63,0,.65,0,.65,0,.66,0,.64-.09.64-.11.62-.14.62-.17.6-.2.59-.23.58-.25.56-.28.55-.31.53-.33.51-.35.5-.38.48-.4.46-.42.44-.44.42-.46.4-.48.38-.5.35-.51.33-.54.31-.54.28-.57.25-.57.23-.59.2-.6.17-.62.14-.62.12-.64.08-.64.05h-1.31L292,373l-.63-.08-.63-.12-.61-.14-.6-.17-.59-.2-.58-.23-.56-.25-.55-.28-.53-.31-.52-.33-.49-.35-.48-.38-.46-.4-.45-.42-.42-.44-.4-.46-.37-.48-.36-.5-.33-.51-.3-.53-.28-.55-.26-.56-.23-.58-.2-.59-.17-.6-.14-.62-.11-.62-.08-.64-.05-.64,0-.66,0-.65.05-.65.08-.63.11-.63.14-.61.17-.6.2-.59.23-.58.26-.56.28-.55.3-.53.33-.51.36-.5.37-.48.4-.46.42-.44.45-.43.46-.39.48-.38.49-.36.52-.33.53-.3.55-.28.56-.26.58-.22.59-.2.6-.17.61-.15.63-.11.63-.08.65-.05Zm-50.74,0h.66l.64.05.64.08.62.11.62.15.6.17.59.2.58.22.56.26.55.28.53.3.51.33.5.36.48.38.46.39.44.43.42.44.4.46.38.48.35.5.33.51.31.53.28.55.26.56.22.58.2.59.17.6.14.61.12.63.08.63.05.65V361l-.05.64-.08.64-.12.62-.14.62-.17.6-.2.59-.22.58-.26.56-.28.55-.31.53-.33.51-.35.5-.38.48-.4.46-.42.44-.44.42-.46.4-.48.38-.5.35-.51.33-.53.31-.55.28-.56.25-.58.23-.59.2-.6.17-.62.14-.62.12-.64.08-.64.05h-1.31l-.65-.05-.63-.08-.63-.12-.61-.14-.6-.17-.59-.2-.58-.23-.56-.25-.55-.28-.53-.31-.51-.33-.5-.35-.48-.38-.46-.4-.44-.42-.43-.44-.39-.46-.38-.48-.36-.5-.33-.51-.3-.53-.28-.55-.26-.56-.22-.58-.2-.59-.17-.6-.15-.62-.11-.62-.08-.64-.05-.64v-1.31l.05-.65.08-.63.11-.63.15-.61.17-.6.2-.59.22-.58.26-.56.28-.55.3-.53.33-.51.36-.5.38-.48.39-.46.43-.44.44-.43.46-.39.48-.38.5-.36.51-.33.53-.3.55-.28.56-.26.58-.22.59-.2.6-.17.61-.15.63-.11.63-.08.65-.05Zm-50.73,0h.65l.65.05.63.08.63.11.61.15.6.17.59.2.58.22.56.26.55.28.53.3.51.33.5.36.48.38.46.39.44.43.43.44.39.46.38.48.36.5.33.51.3.53.28.55.26.56.22.58.2.59.17.6.15.61.11.63.08.63,0,.65V361l0,.64-.08.64-.11.62-.15.62-.17.6-.2.59-.22.58-.26.56-.28.55-.3.53-.33.51-.36.5-.38.48-.39.46-.43.44-.44.42-.46.4-.48.38-.5.35-.51.33-.53.31-.55.28-.56.25-.58.23-.59.2-.6.17-.61.14-.63.12-.63.08-.65.05H191.2l-.64-.05-.64-.08-.62-.12-.62-.14-.6-.17-.59-.2-.58-.23-.56-.25-.55-.28-.53-.31-.51-.33-.5-.35-.48-.38-.46-.4-.44-.42-.42-.44-.4-.46-.38-.48-.35-.5L181,367l-.31-.53-.28-.55-.25-.56-.23-.58-.2-.59-.17-.6-.14-.62-.12-.62-.08-.64-.05-.64v-1.31l.05-.65.08-.63.12-.63.14-.61.17-.6.2-.59.23-.58.25-.56.28-.55.31-.53.33-.51.35-.5.38-.48.4-.46.42-.44.44-.43.46-.39.48-.38.5-.36.51-.33.53-.3.55-.28.56-.26.58-.22.59-.2.6-.17.62-.15.62-.11.64-.08.64-.05Zm-50.74,0h.65l.65.05.63.08.63.11.61.15.6.17.59.2.58.22.56.26.55.28.53.3.52.33.49.36.48.38.47.39.44.43.42.44.4.46.37.48.36.5.33.51.3.53.28.55.26.56.23.58.2.59.17.6.14.61.11.63.08.63.05.65,0,.65,0,.66-.05.64-.08.64-.11.62-.14.62-.17.6-.2.59-.23.58-.26.56-.28.55-.3.53-.33.51-.36.5-.37.48-.4.46-.42.44-.44.42-.47.4-.48.38-.49.35-.52.33-.53.31-.55.28-.56.25-.58.23-.59.2-.6.17-.61.14-.63.12-.63.08-.65.05h-1.31l-.64-.05-.64-.08-.62-.12-.62-.14-.6-.17-.59-.2-.57-.23-.57-.25-.54-.28-.54-.31-.51-.33-.5-.35-.48-.38-.46-.4-.44-.42-.42-.44-.4-.46-.38-.48-.35-.5-.33-.51-.31-.53-.28-.55-.25-.56-.23-.58-.2-.59-.17-.6-.14-.62-.11-.62-.08-.64-.05-.64,0-.66,0-.65.05-.65.08-.63.11-.63.14-.61.17-.6.2-.59.23-.58.25-.56.28-.55.31-.53.33-.51.35-.5.38-.48.4-.46.42-.44.44-.43.46-.39.48-.38.5-.36.51-.33.54-.3.54-.28.57-.26.57-.22.59-.2.6-.17.62-.15.62-.11.64-.08.64-.05Z"></path>
	<path class="cls-6" d="M191.54,99.27,178,90.53l13.58-7.29,13.59,7.29-13.59,8.74ZM235.1,28.81a5.07,5.07,0,1,0,5.07,5.06,5.06,5.06,0,0,0-5.07-5.06ZM240,39.15a5.07,5.07,0,1,0,5.07,5.07A5.07,5.07,0,0,0,240,39.15Zm-11.33-.59a5.07,5.07,0,1,0,5.06,5.07,5.07,5.07,0,0,0-5.06-5.07Zm-12.91,3.75h-.27l-.25,0-.26,0-.25,0-.24.06-.24.07-.24.08-.22.09-.23.1-.22.11-.21.12-.2.13-.2.15-.2.15-.18.16-.18.16L212,44l-.16.18-.15.2-.15.19-.13.21-.12.21-.11.22-.1.22-.09.23-.08.24-.07.24-.06.24,0,.25,0,.26,0,.25v.53l0,.25,0,.26,0,.25.06.24.07.24.08.24.09.23.1.22.11.22.12.21.13.21.15.2.15.19.16.18.16.18.18.17.18.16.2.15.2.14.2.13.21.12.22.11.23.1.22.09.24.08.24.07.24.06.25,0,.26,0,.25,0h.53l.26,0,.25,0,.25,0,.24-.06.24-.07.24-.08.23-.09.22-.1.22-.11.21-.12.21-.13.2-.14.19-.15.18-.16.18-.17.17-.18.16-.18.15-.19.14-.2.13-.21.12-.21.11-.22.11-.22.09-.23.08-.24.06-.24.06-.24,0-.25,0-.26,0-.25v-.53l0-.25,0-.26,0-.25-.06-.24-.06-.24-.08-.24-.09-.23-.11-.22-.11-.22-.12-.21-.13-.21-.14-.19-.15-.2-.16-.18-.17-.18-.18-.16-.18-.16-.19-.15-.2-.15-.21-.13-.21-.12-.22-.11-.22-.1-.23-.09-.24-.08-.24-.07-.24-.06-.25,0-.25,0-.26,0Zm35.77,5.52h-.26l-.26,0-.25,0-.25,0-.25.06-.24.07-.23.07-.23.1-.22.1-.22.11-.22.12-.2.13-.2.14-.19.15-.19.16-.17.17-.17.18-.16.18-.15.19-.14.2-.13.21-.13.21-.11.22-.1.22-.09.23-.08.24-.07.24-.05.24,0,.25,0,.25,0,.26v.53l0,.25,0,.26,0,.25.05.24.07.24.08.24.09.23.1.22.11.22.13.21.13.21.14.19.15.2.16.18.17.18.17.16.19.16.19.15.2.15.2.13.22.12.21.11.23.1.23.09.23.08.24.07.25.06.25,0,.25,0,.26,0h.52l.26,0,.25,0,.25,0,.25-.06.24-.07.23-.08.23-.09.23-.1.21-.11.22-.12.2-.13.2-.15.19-.15.19-.16.17-.16.17-.18.16-.18.15-.2.14-.19.13-.21.13-.21.11-.22.1-.22.09-.23.08-.24.07-.24,0-.24.05-.25,0-.26,0-.25v-.53l0-.26,0-.25-.05-.25,0-.24-.07-.24-.08-.24-.09-.23-.1-.22-.11-.22-.13-.21-.13-.21-.14-.2-.15-.19-.16-.18-.17-.18-.17-.17-.19-.16-.19-.15-.2-.14-.2-.13-.22-.12-.21-.11-.23-.1-.23-.1-.23-.07-.24-.07-.25-.06-.25,0-.25,0-.26,0ZM191.63,28.07h-.18C189,28.07,187,31,187,34.51S189,41,191.45,41h.18c2.45,0,4.44-2.89,4.44-6.45s-2-6.44-4.44-6.44Zm37.7,58-.59-.06-.58,0-.57,0h-1.11l-.55,0-.53,0-.52.06-.51.07-.5.08-.48.1-.47.11-.45.13-.43.14-.42.15-.4.16-.37.17-.36.18-.34.19-.31.2-.29.2-.27.21-.24.22-.22.22-.2.22-.17.23-.14.22-.13.23-.1.23L218,90l-.06.23,0,.25,0,.24v.24l0,.25,0,.25.07.25.09.26.11.26.14.26.16.26.19.27.21.27.23.27.26.26.28.27.3.26.33.25.35.25.37.24.39.24.41.23.42.22.45.21.46.19.48.19.5.18.51.16.52.15.54.14.55.13.56.1.57.1.58.08.58.06.58,0,.57,0h1.12l.54,0,.54,0,.52,0,.51-.07.5-.09.48-.09.47-.12.45-.12.43-.14.42-.15.39-.16.38-.17.36-.18.33-.19.32-.2.29-.2.26-.22.25-.21.22-.22.19-.22.17-.23.15-.23.13-.23.1-.23.08-.23.06-.24,0-.24,0-.24v-.25l0-.24-.05-.25-.06-.25-.09-.26-.12-.26L239,91l-.16-.27-.19-.26-.21-.27-.23-.27-.26-.27-.28-.26-.31-.26L237,88.9l-.35-.25-.37-.25-.39-.23-.41-.23-.43-.22-.44-.21-.47-.2-.48-.19-.49-.17-.51-.17-.52-.15-.54-.14-.55-.12-.56-.11-.57-.09-.58-.08Zm48.06-30.24,0,0,.51-.77.47-.39.29-.25.28-.26.26-.25.25-.25.23-.26.22-.25.2-.26.19-.26.18-.25.16-.26.15-.26.14-.26.12-.26.12-.26.1-.26.08-.26.08-.27.06-.27.06-.26,0-.28,0-.27V48.07l0-.29-.05-.3-.05-.3-.07-.31-.08-.31-.2-.67.14-.6a9.17,9.17,0,0,0-4.07,4.52,9,9,0,0,0,.17,6ZM266.44,105.6l.37-.3.59-.53.56-.53.51-.52.47-.53.44-.52.39-.52.36-.52.31-.52.28-.52.24-.51.21-.51.17-.51.13-.51.1-.51.06-.51,0-.51v-.51l0-.52-.07-.52-.11-.54-.14-.53-.18-.55-.21-.55-.25-.56-.29-.56-.33-.58-.37-.58-.4-.59-.45-.6-.49-.6-.23-.26-14.7,6.21,13,10.42ZM148,28.81a5.07,5.07,0,1,1-5.07,5.06A5.07,5.07,0,0,1,148,28.81Zm-4.93,10.34A5.07,5.07,0,1,1,138,44.22a5.07,5.07,0,0,1,5.06-5.07Zm11.34-.59a5.07,5.07,0,1,1-5.07,5.07,5.07,5.07,0,0,1,5.07-5.07Zm12.91,3.75h.26l.26,0,.25,0,.25,0,.24.06.24.07.24.08.23.09.22.1.22.11.21.12.21.13.2.15.19.15.18.16.18.16.17.18.16.18.15.2.14.19.13.21.12.21.11.22.11.22.09.23.08.24.06.24.06.24,0,.25,0,.26,0,.25v.53l0,.25,0,.26,0,.25-.06.24-.06.24-.08.24-.09.23-.11.22-.11.22-.12.21-.13.21-.14.2-.15.19-.16.18-.17.18-.18.17-.18.16-.19.15-.2.14-.21.13-.21.12-.22.11-.22.1-.23.09-.24.08-.24.07-.24.06-.25,0-.25,0-.26,0H167l-.25,0-.26,0-.25,0-.24-.06-.24-.07-.24-.08-.23-.09-.22-.1-.22-.11-.21-.12-.21-.13-.19-.14-.2-.15-.18-.16-.18-.17-.16-.18-.16-.18-.15-.19-.15-.2L163,50l-.12-.21-.11-.22-.1-.22-.09-.23-.08-.24-.07-.24-.06-.24,0-.25,0-.26,0-.25v-.53l0-.25,0-.26,0-.25.06-.24.07-.24.08-.24.09-.23.1-.22.11-.22.12-.21.13-.21.15-.19.15-.2.16-.18.16-.18.18-.16.18-.16.2-.15.19-.15.21-.13.21-.12.22-.11.22-.1.23-.09.24-.08.24-.07.24-.06.25,0,.26,0,.25,0Zm-35.78,5.52h.26l.26,0,.26,0,.24,0,.25.06.24.07.23.07.23.1.23.1.22.11.21.12.2.13.2.14.19.15.19.16.17.17.17.18.16.18.15.19.14.2.14.21.12.21.11.22.1.22.09.23.08.24.07.24.06.24,0,.25,0,.25,0,.26v.53l0,.25,0,.26,0,.25-.06.24-.07.24-.08.24-.09.23-.1.22-.11.22-.12.21-.14.21-.14.19-.15.2-.16.18-.17.18-.17.16-.19.16-.19.15-.2.15-.2.13-.21.12-.22.11-.23.1-.23.09-.23.08-.24.07-.25.06-.24,0-.26,0-.26,0h-.52l-.26,0-.25,0-.25,0-.24-.06-.24-.07-.24-.08-.23-.09-.22-.1-.22-.11-.21-.12-.21-.13-.2-.15-.19-.15-.18-.16-.18-.16-.17-.18-.16-.18-.15-.2-.14-.19-.13-.21-.12-.21-.12-.22-.1-.22-.09-.23-.08-.24-.06-.24-.06-.24,0-.25,0-.26,0-.25v-.53l0-.26,0-.25,0-.25.06-.24.06-.24.08-.24.09-.23.1-.22.12-.22.12-.21.13-.21.14-.2.15-.19.16-.18.17-.18.18-.17.18-.16.19-.15.2-.14.21-.13.21-.12.22-.11.22-.1.23-.1.24-.07.24-.07.24-.06.25,0,.25,0,.26,0Zm22.24,38.26.58-.06.58,0,.57,0h1.12l.54,0,.53,0,.53.06.51.07.49.08.48.1.47.11.45.13.44.14.41.15.4.16.38.17.35.18.34.19.31.2.29.2.27.21.24.22.22.22.2.22.17.23.15.22.12.23.1.23.09.24.06.23,0,.25v.48l0,.25-.05.25-.07.25L165,92l-.11.26-.14.26-.16.26-.18.27-.21.27-.24.27-.26.26-.28.27-.3.26-.33.25-.35.25-.37.24-.39.24-.4.23-.43.22-.45.21-.46.19-.48.19-.49.18-.51.16-.53.15-.53.14-.55.13-.56.1-.57.1-.59.08-.58.06-.58,0-.57,0h-1.12l-.54,0-.53,0-.53,0-.51-.07-.49-.09-.49-.09L148.7,97l-.45-.12-.44-.14-.41-.15-.4-.16-.38-.17-.36-.18-.33-.19-.31-.2-.29-.2-.27-.22-.24-.21-.22-.22-.2-.22-.17-.23-.15-.23L144,94l-.11-.23-.08-.23-.06-.24,0-.24v-.49l0-.24,0-.25.07-.25.09-.26.11-.26.14-.26.16-.27.18-.26.21-.27.24-.27.25-.27.29-.26.3-.26.33-.25.35-.25.37-.25.38-.23.41-.23.43-.22.45-.21.46-.2.48-.19.49-.17.51-.17.53-.15.53-.14.55-.12.56-.11.57-.09.59-.08ZM105.69,55.85l0,0-.51-.77-.47-.39-.29-.25-.28-.26-.26-.25-.24-.25-.24-.26-.21-.25-.21-.26-.19-.26-.18-.25-.16-.26-.15-.26-.14-.26-.12-.26-.11-.26-.1-.26-.09-.26-.08-.27-.06-.27,0-.26,0-.28,0-.27,0-.28v-.56l0-.29,0-.29,0-.3,0-.3.07-.31.08-.31.2-.67-.14-.6a9.17,9.17,0,0,1,4.07,4.52,8.89,8.89,0,0,1-.17,6Zm11,49.75-.36-.3-.6-.53-.55-.53-.52-.52-.47-.53-.44-.52-.39-.52-.36-.52-.31-.52-.28-.52-.24-.51-.21-.51-.16-.51-.14-.51-.1-.51-.06-.51,0-.51v-.51l0-.52.07-.52.1-.54.14-.53.18-.55.21-.55.25-.56.29-.56.33-.58.37-.58.41-.59.44-.6.49-.6L115,89l14.7,6.21-13,10.42Z"></path>
	<path class="cls-5" d="M114.9,86.11l0-.12,0-.11,0-.12,0-.12,0-.13,0-.12,0-.14v-.87l0-.16,0-.16v0c11.78-3.37,25.41-5.66,40.61-7,11.23-1,23.32-1.54,36.17-1.62,12.85.08,24.94.6,36.17,1.62,15.21,1.38,28.83,3.67,40.61,7v0l0,.16,0,.16v1l0,.12,0,.13,0,.12,0,.12,0,.11,0,.12-.05.11,0,.1-.05.11-.05.1-.06.1-.06.1-.07.1-.45.63a232.44,232.44,0,0,0-38-6.3c-11.71-1.06-24.35-1.58-37.8-1.63s-26.09.57-37.8,1.63a232.13,232.13,0,0,0-38,6.3l-.46-.63-.07-.1-.06-.1,0-.1-.06-.1,0-.11,0-.1,0-.11Zm153-3.6-.16-.47.29-1.4.23-1,.23-1,.24-1,.24-1,.25-1,.25-1,.26-.94.27-.93.27-.92.28-.9.28-.89.29-.88.3-.86.3-.85.31-.83.31-.82.32-.81.32-.79.33-.78.34-.77L274,62l.35-.74.36-.72.36-.71.37-.7.37-.68.38-.67.27-.45a13.73,13.73,0,0,1-1.06-4.44l-10.21,4.39,10.27-6a8.74,8.74,0,0,1,.43-1.85l-9.06-5.56,9.62,4.34a9.11,9.11,0,0,1,1.06-1.53l-6.39-13.53,7.48,12.43a14.11,14.11,0,0,1,1.9-1.39l-.35-14.11L282.3,41.4l0-.09.25-.8.27-.78.28-.76.28-.75.3-.73.31-.71.32-.7.33-.68.33-.67.35-.65.36-.64.36-.62.38-.61.38-.59.39-.59.4-.57.4-.55.42-.54.42-.53.43-.52.43-.51.44-.49.45-.49.46-.47.45-.46.47-.46.32-.3.29-.49.33-.61.28-.57.24-.52.19-.47.14-.42.1-.37.06-.31,0-.24V21l0-.1v-.05h0l0,0-.08,0-.14,0-.22,0-.3,0h-.36l-.42.05-.48.07-.54.12-.6.15-.65.18-.7.23-.74.26-.8.3-.85.34-.89.37-.94.41-2,.92-1-1.51-.37-.5-.37-.45-.36-.4-.35-.35-.34-.3L280,20.3l-.31-.2-.3-.15-.28-.12-.27-.08-.25,0h-.5l-.26.05-.27.08-.28.12-.3.16-.31.21-.33.25-.34.31-.35.35-.36.41-.37.45-.37.51-.38.57-.38.61-.39.66-.39.72-.39.76-.39.82-.94,2.05-1.62-.68L269.3,28l-.36-.11-.33-.08-.31-.06-.27,0h-.48l-.19,0-.17,0-.15.05-.13.06-.12.07-.12.09-.11.11-.12.13-.11.16-.11.19-.1.22-.1.26-.09.3-.08.33-.07.36-.06.41,0,.43,0,.47v1l0,.57,0,.59.05.63.19,1.76-1.95.61-.83.29-.77.29-.71.3-.66.31-.6.32-.53.31-.48.33L259,39l-.37.32-.31.32-.25.32-.2.31-.16.3-.12.31-.08.31,0,.31v.33l0,.35.08.37.11.4.17.42.21.45.27.47.33.5.37.51.44.53.49.55.54.57.6.59.66.6,1.4,1.2-.57,1.79-.26.87-.21.82-.17.77-.13.73-.09.67-.06.63,0,.58v.53l0,.49.07.45.08.4.11.37.12.34.15.3.16.28.18.25.19.23.22.22.23.2.26.19.28.18.3.17.32.15.35.14.36.14.38.12.4.11.42.1.44.09.44.09,1.28.21.22-.37c1.07-1.82,2.88-4.16,5.09-4.76a35.48,35.48,0,0,0-3.94,5.44,16.55,16.55,0,0,0-1.93,5.59l-.07.3-.08.31-.08.31-.08.3-.09.31-.09.31-.1.3-.1.31-.1.31-.11.31-.11.31-.12.31-.12.31-.12.31-.13.31-.14.31-.28.62-1.08.78-.79.51-.78.42-.76.34-.76.25-.74.16-.75.06-.72,0-.71-.16-.66-.26-.62-.37-.55-.45-.5-.52-.44-.59-.39-.64-.35-.7-.31-.76-.28-.8-.25-.86-.22-.91-.19-1-.16-1-.15-1.07-.12-1.12-.1-1.16-.07-1.22-.06-1.26,0-1.31V59a6.32,6.32,0,0,1-1.8.26,6.47,6.47,0,0,1-1.71-.23l0,.73-.06.87-.08.83-.09.79-.1.75-.11.72-.12.68-.14.65-.15.61-.17.58-.18.55-.2.51-.22.48-.24.45-.27.42-.29.39-.33.35-.36.32-.39.26-.43.22-.45.15-.47.09-.48,0-.47,0-.31-.06-.52.19-.62.09-.62,0-.58-.2-.52-.31-.44-.39-.36-.45-.32-.5-.27-.54-.25-.59L239,67l-.2-.69-.19-.74-.17-.79-.16-.84-.15-.89-.13-1-.12-1-.12-1-.1-1.09-.09-1.14-.08-1.19-.07-1.23-.06-1.28-.05-1.33,0-1.36,0-1.4V50a6.46,6.46,0,0,1-3-3.07,6.49,6.49,0,0,1-2.53,2.4l0,.58L231.59,51l-.07,1.1-.08,1.07-.09,1.05-.1,1-.11,1-.12,1-.13.94-.15.91-.16.87-.17.85-.19.81-.21.77-.23.73-.25.7-.27.66-.3.62-.33.58-.36.54-.41.49-.45.44-.5.37-.56.31-.59.22-.63.13-.65,0-.26,0-.1,0-.48.12-.5.06-.5,0-.49-.1-.47-.17-.44-.24-.4-.29-.36-.34-.34-.38-.3-.41-.28-.46-.26-.49-.24-.52-.23-.57-.21-.6-.2-.64-.19-.68-.18-.73-.17-.76-.16-.81-.15-.85-.14-.89-.13-.94-.13-1-.11-1-.1-1.06-.07-.73a6.66,6.66,0,0,1-2.67-.1l-.16.58-.24.84-.25.83-.26.81-.27.79-.28.77-.29.75-.31.73-.31.71-.33.68-.34.66-.36.63-.38.61-.39.57-.41.55-.44.51-.46.48-.48.45-.51.4-.53.37-.57.31-.59.27-.61.21-.64.16-.66.1-.63,0-.47,0-.53,0-.52-.12-.5-.17-.49-.24-.45-.29-.44-.33-.41-.38-.39-.42L199,65l-.36-.51-.34-.54-.33-.58-.32-.62-.32-.67-.3-.7-.29-.75-.29-.79-.27-.83-.27-.87-.27-.92-.26-1-.25-1-.24-1-.24-1.09L194.37,52l-.23-1.18-.22-1.22-.21-1.27L193.5,47l-.2-1.35-.49-3.49a4.21,4.21,0,0,1-1.18.17h-.18a4.26,4.26,0,0,1-1.18-.17l-.49,3.49-.2,1.35-.21,1.31-.21,1.27-.22,1.22L188.71,52l-.23,1.13-.24,1.09-.24,1-.25,1-.26,1-.26.92L187,59l-.28.83-.29.79-.29.75-.3.7-.31.67-.32.62-.33.58-.35.54-.36.51-.37.46-.39.42-.41.38-.43.33-.46.29-.48.24-.51.17-.51.12-.53,0-.48,0-.63,0-.66-.1-.64-.16-.61-.21-.59-.27-.56-.31-.54-.37-.51-.4-.48-.45-.46-.48-.43-.51-.42-.55-.39-.57-.38-.61-.36-.63-.34-.66-.33-.68-.31-.71-.3-.73-.29-.75-.28-.77-.27-.79-.26-.81-.25-.83-.25-.84-.16-.58a6.66,6.66,0,0,1-1.56.19,6.74,6.74,0,0,1-1.11-.09l-.06.73L166,55.48l-.11,1-.12,1-.13.94-.15.89-.14.85-.16.81-.17.76-.18.73-.19.68-.2.64-.22.6L164,65l-.24.52-.26.49-.28.46-.3.41-.33.38-.37.34-.4.29-.44.24-.47.17-.49.1-.5,0-.5-.06-.48-.12-.1,0-.25,0-.65,0-.63-.13-.6-.22-.55-.31-.51-.37-.45-.44-.4-.49-.37-.54-.33-.58-.3-.62-.27-.66-.25-.7-.23-.73-.21-.77-.19-.81-.17-.85-.16-.87-.15-.91-.13-.94-.12-1-.11-1-.1-1-.09-1.05-.08-1.07-.07-1.1-.06-1.11,0-.58a6.49,6.49,0,0,1-2.53-2.4,6.41,6.41,0,0,1-3,3.07v.08l0,1.4,0,1.36-.05,1.33-.06,1.28-.07,1.23-.08,1.19L145.45,59l-.1,1.09-.11,1-.13,1-.13,1-.14.89-.16.84-.18.79-.18.74-.21.69-.22.63-.25.59-.28.54-.31.5-.37.45-.44.39-.51.31-.59.2-.62,0-.61-.09-.53-.19-.3.06-.48,0-.47,0-.48-.09-.45-.15-.43-.22-.39-.26-.36-.32-.33-.35-.29-.39-.26-.42-.24-.45-.22-.48-.2-.51-.19-.55-.16-.58-.16-.61-.13-.65-.13-.68L133.6,63l-.1-.75-.09-.79-.08-.83-.06-.87,0-.73a6.41,6.41,0,0,1-3.51,0v.73l0,1.31-.06,1.26-.08,1.22-.1,1.16-.12,1.12-.14,1.07-.17,1-.19,1-.22.91-.25.86-.27.8-.32.76-.34.7-.4.64-.44.59-.5.52-.55.45-.61.37-.67.26-.7.16-.73,0-.74-.06-.75-.16-.75-.25-.77-.34-.77-.42-.8-.51-1.07-.78-.29-.62-.13-.31-.13-.31-.13-.31-.12-.31-.12-.31-.11-.31-.11-.31-.1-.31-.1-.31-.09-.3-.09-.31-.09-.31-.09-.3-.08-.31-.08-.31-.07-.3a16.33,16.33,0,0,0-1.93-5.59,34.82,34.82,0,0,0-3.94-5.44c2.21.6,4,2.94,5.09,4.76.08.12.15.25.22.37l1.28-.21.45-.09.43-.09.42-.1.4-.11.38-.12.37-.14.34-.14.32-.15.3-.17.28-.18.26-.19.24-.2.21-.22.2-.23.18-.25.16-.28.14-.3.13-.34.1-.37.09-.4.06-.45,0-.49v-.53l0-.58-.06-.63-.09-.67-.13-.73-.17-.77-.21-.82-.25-.87-.58-1.79,1.4-1.2.66-.6.6-.59.55-.57.49-.55.43-.53.38-.51.32-.5.27-.47.21-.45.17-.42.12-.4.07-.37,0-.35v-.33l0-.31-.08-.31-.12-.31-.15-.3L125,40l-.25-.32-.31-.32-.36-.32-.42-.32-.48-.33-.54-.31-.6-.32-.65-.31-.72-.3-.77-.29-.83-.29L117.16,36l.18-1.76,0-.63,0-.59,0-.57v-.53l0-.5,0-.47,0-.43-.06-.41-.06-.36-.09-.33-.09-.3-.1-.26-.1-.22-.11-.19-.11-.16-.11-.13-.12-.11-.11-.09-.13-.07-.13-.06-.15-.05-.17,0-.19,0h-.47l-.28,0-.31.06-.33.08-.35.11-.39.14-1.62.68-.94-2.05-.39-.82-.39-.76-.39-.72-.39-.66-.38-.61-.38-.57-.37-.51-.37-.45-.36-.41-.35-.35-.34-.31-.33-.25-.31-.21-.3-.16-.28-.12-.27-.08-.26-.05h-.49l-.26,0-.27.08-.28.12-.29.15-.32.2-.32.25-.34.3-.35.35-.36.4-.37.45-.37.5-1,1.51-2-.92L97,22.73l-.89-.37L95.23,22l-.79-.3-.75-.26-.7-.23-.65-.18-.59-.15-.54-.12-.49-.07-.42-.05h-.36l-.29,0-.22,0-.15,0-.08,0,0,0h0l0,.05,0,.1v.18l0,.24,0,.31.1.37.15.42.19.47.23.52.29.57.33.61.28.49.32.3.47.46.46.46.45.47.45.49.44.49.44.51.42.52.42.53.42.54.41.55.39.57.39.59.39.59.37.61.37.62.35.64.35.65.34.67.32.68.32.7.31.71.3.73L100,39l.27.76.27.78.25.8,0,.09,2.11-11.33-.35,14.11a13.5,13.5,0,0,1,1.9,1.39l7.48-12.43-6.39,13.53a8.56,8.56,0,0,1,1.06,1.53l9.62-4.34-9.06,5.56a8.17,8.17,0,0,1,.43,1.85l10.27,6-10.21-4.39a13.73,13.73,0,0,1-1.06,4.44l.27.45.38.67.37.68.37.7.36.71.36.72L109,62l.34.75.34.77.33.78.33.79.31.81.32.82.3.83.31.85.29.86.29.88.28.89.28.9.27.92.27.93.26.94.25,1,.25,1,.25,1,.23,1,.23,1,.23,1,.29,1.4-.16.47a226.5,226.5,0,0,1,40.12-6.87c11.27-1,23.4-1.54,36.29-1.62,12.89.08,25,.6,36.3,1.62A226.54,226.54,0,0,1,268,82.51ZM191.54,8.34l1.22,18.54a4.64,4.64,0,0,1,1.38.63l8-10.36-6.92,11.22a7.65,7.65,0,0,1,1.51,2.36L204.16,28l-7.06,4a10.21,10.21,0,0,1,.31,2.51L208,37.69l-10.72-1.82a9.69,9.69,0,0,1-.69,2.54l4.86,6.47L196,39.66a6.1,6.1,0,0,1-2.25,2.11l2.6,2,1,.77,1,.71.91.66.86.6.81.55.77.49.72.44.66.38.61.33.56.27.5.21.44.16.37.11.29,0,.21,0h.07l0-.13v-.24l0-.33,0-.41-.1-.49-.14-.55-.19-.62-.23-.68-.28-.74-.88-2.16,2.18-.7.74-.25.68-.27.64-.27.58-.27.53-.28.47-.28.43-.28.37-.28.31-.28.27-.27.21-.26.18-.25.13-.25.09-.23.06-.24,0-.24v-.25l0-.27-.06-.29-.1-.31-.14-.33-.18-.36-.23-.38-.29-.4-.33-.42-.38-.44-.44-.45-.48-.47-.53-.48-.59-.49-1.45-1.14.53-1.25.12-.29.11-.29.11-.29.09-.27.08-.27.08-.26.06-.26.05-.24,0-.23,0-.22,0-.21v-.39l0-.17,0-.17,0-.15-.06-.15-.06-.14-.08-.14-.1-.14-.12-.14-.13-.14-.16-.15-.2-.14-.22-.15-.25-.14-.28-.15-.32-.14-.36-.13-.4-.14-1.73-.5.72-2.51.31-1.15.27-1.09.24-1,.2-1,.17-.9.12-.84.1-.77,0-.71,0-.63v-.56l0-.49-.07-.41-.08-.32-.1-.25-.09-.16-.09-.11-.07-.06-.07,0-.11,0-.15,0h-.23l-.3,0-.37.1-.42.15-.49.21-.53.27-.59.34-.62.4-.68.45-.71.52-2.52,1.94-.59-3.33-.21-1.09-.22-1-.23-1L196,8.38l-.24-.87-.25-.82-.26-.75-.26-.7-.26-.64L194.45,4l-.27-.52L193.91,3l-.27-.4-.26-.34L193.12,2l-.24-.23-.23-.17-.22-.12-.21-.08-.19,0-.2,0h-.57l-.2,0-.2,0-.21.08-.21.12-.23.17L190,2l-.26.28-.26.34-.27.4-.27.46-.27.52-.27.58-.26.64-.26.7-.25.75-.25.82-.24.87-.24.92-.22,1-.22,1-.22,1.09-.59,3.33-2.51-1.94-.72-.52-.67-.45-.63-.4-.59-.34-.53-.27-.48-.21-.43-.15-.37-.1-.29,0h-.23l-.16,0-.11,0-.07,0-.07.06-.08.11-.1.16-.09.25-.09.32-.07.41,0,.49v.56l0,.63.06.71.09.77.13.84.16.9.2,1,.24,1,.27,1.09.32,1.15.71,2.51-1.73.5-.4.14-.35.13-.32.14-.29.15-.25.14-.22.15-.19.14-.16.15-.14.14-.12.14-.09.14-.08.14-.07.14-.06.15,0,.15,0,.17,0,.17V28l0,.22,0,.23.05.24.07.26.07.26.08.27.1.27.1.29.11.29.12.29.53,1.25L174.75,33l-.58.49-.54.48-.48.47-.44.45-.38.44-.33.42-.28.4-.24.38-.18.36-.14.33-.1.31-.06.29,0,.27v.25l0,.24.06.24.1.23.13.25.17.25.21.26L172,40l.32.28.37.28.42.28.47.28.53.28.58.27.64.27.68.27.74.25,2.18.7L178,45.36l-.28.74-.24.68-.19.62-.14.55-.09.49-.06.41,0,.33,0,.24,0,.13h.07l.21,0,.29,0,.37-.11.44-.16.5-.21.56-.27.61-.33.67-.38.71-.44.77-.49.81-.55.86-.6.91-.66,1-.71,1-.77,2.6-2a6.1,6.1,0,0,1-2.25-2.11l-5.53,5.22,4.86-6.47a9.69,9.69,0,0,1-.69-2.54L175,37.69l10.64-3.18A10.72,10.72,0,0,1,186,32l-7.06-4,7.48,2.71a7.84,7.84,0,0,1,1.51-2.36L181,17.15l7.95,10.36a4.64,4.64,0,0,1,1.38-.63l1.22-18.54Zm0,73.38,15.22,8.18,1,.53-1,.62-14.11,9.07c13.4,0,26,.56,37.66,1.62a238.15,238.15,0,0,1,35.37,5.63l-.08-.7L251.7,95.52l-.87-.7,1-.43,14-5.93a233.15,233.15,0,0,0-36.67-6c-11.67-1.06-24.27-1.58-37.68-1.62s-26,.56-37.68,1.62a233.34,233.34,0,0,0-36.67,6l14,5.93,1,.43-.87.7-13.94,11.15-.08.7a238.09,238.09,0,0,1,35.38-5.63c11.67-1.06,24.26-1.58,37.65-1.62l-14.11-9.07-.95-.62,1-.53,15.22-8.18Zm0,24.67c13.83,0,26.8.54,38.81,1.63a238.49,238.49,0,0,1,35.54,5.66l0-.4,0-.45v-2.67l0-.45,0-.45,0-.44v0a237,237,0,0,0-35.63-5.7c-12-1.08-24.89-1.6-38.68-1.62s-26.72.54-38.68,1.62a237,237,0,0,0-35.63,5.7v0l0,.44,0,.45,0,.45v2.67l0,.45,0,.4A238.06,238.06,0,0,1,152.74,108c12-1.09,25-1.61,38.8-1.63ZM261,113.91a247.41,247.41,0,0,0-30.77-4.57c-12-1.08-24.89-1.6-38.68-1.62s-26.72.54-38.68,1.62a247.41,247.41,0,0,0-30.77,4.57H261Zm-31.5-29.15c-6.68-.8-12.46,1.68-12.92,5.54s4.58,7.62,11.25,8.42,12.46-1.69,12.92-5.54-4.58-7.62-11.25-8.42Zm-75.89,0c6.67-.8,12.46,1.68,12.92,5.54s-4.58,7.62-11.26,8.42S142.8,97,142.34,93.18s4.58-7.62,11.26-8.42Z"></path>
	<path class="cls-5" d="M110.3,72.83l-1.06-.32-1-.33-1-.35-1-.37-1-.38-1-.4-1-.42-1-.43-1-.45-1-.46-1-.48-1-.49-1-.5-1-.51-1-.53-.94-.55-.93-.55-.93-.57-.92-.58-.91-.58-.91-.6-.9-.62-.9-.62-.89-.63-.89-.64-.88-.65-.83-.62-.83-.52-.84-.5L82,57.73l-.84-.42-.82-.39-.82-.34-.82-.31-.8-.27L77,55.77l-.79-.19-.8-.16-.78-.13-.79-.08-.77-.05-.78,0-.77,0-.76.06-.77.09-.76.13-.75.17-.76.2L67,56l-.75.28-.75.31-.75.34-.75.39-.75.42-.74.46-.75.5-.74.53-.74.58-.8.66-.62.41-.57.39-.58.38-.59.38-.6.38-.6.38-.61.38-.61.38-.63.38-.63.38-.63.38-.65.38-.65.38-.66.38-.66.38-.67.38-.68.38-.69.38-.69.38-.7.38-.7.37-.72.38-.72.38-.72.38-.74.38-.74.38-.75.38-.75.38-.76.38-.77.38-.77.38-.73.35-.39.24-.38.27-.33.28-.3.28-.26.3-.23.3-.2.3-.17.32-.14.33-.12.35-.1.36-.07.37,0,.39,0,.41v.43l0,.45,0,.46.07.48.1.5.11.51.14.53.17.54.18.55.2.57.22.58.24.6.25.6.27.62.29.62.3.64.31.65L38.83,88,37.64,89l-.45.34-.45.35-.47.34-.48.34-.48.34-.5.35-.51.34-.52.34-.52.34-.54.34-.55.34-.56.34-.57.34-.58.34-.59.34-.59.34-.61.34-.63.34-.63.34-.64.34-.65.34-.66.34-.67.34-.68.33-.7.34-.7.34-.71.34-.73.34-.73.33-.74.34-.72.32-1.39.73-1.34.79-1.29.86-1.23.92-1.18,1-1.12,1-1.06,1.1-1,1.15-.93,1.2-.86,1.25-.8,1.3-.72,1.34-.65,1.38L4.94,115l-.5,1.46L4,117.92l-.34,1.53L3.44,121l-.16,1.58-.07,1.61,0,1.63.11,1.65.21,1.67.3,1.68.41,1.7.51,1.72L5.39,136l.72,1.73L7,139.42l1,1.74L9,142.9l1.22,1.78L11,146l.76,1.25.75,1.25.75,1.25L14,151l.73,1.25.72,1.24.72,1.24.69,1.24.69,1.24.67,1.23.65,1.23.63,1.22.62,1.22.59,1.22.57,1.21.55,1.2.52,1.2.49,1.19.46,1.19.44,1.18.4,1.17.37,1.16L24.8,174l.3,1.15.26,1.14.22,1.13.17,1.13.14,1.11.09,1.11,0,1.1v2.3l-1.59-.06-.33,0h-.65l-.33,0h-.32l-.32,0h-.64l-.32,0h-.32l-.31,0h-.63l-.32,0H19.3l-.31,0h-.32l-.31,0h-.63l-.32,0h-.32l-.32,0h-.64l-.33,0h-.33l-.32,0H14.9l-1.33,1L12,185.87l-1.41,1.29-1.29,1.35L8.16,189.9l-1.08,1.43-1,1.48-.88,1.52-.78,1.56-.69,1.61-.6,1.65-.51,1.69-.43,1.73-.35,1.77-.27,1.8L1.4,208l-.13,1.88-.06,1.91v1.94l.07,2,.12,2,.19,2,.24,2.05.29,2.08.33,2.1.38,2.12.42,2.13.46,2.16.49,2.17.53,2.18.55,2.2.58,2.21.77,3.05.71,3,.66,3,.62,3,.56,3,.52,3,.46,3,.43,3,.37,3,.33,3,.29,3,.24,3,.2,3,.16,3,.12,3,.08,3,0,3v3l0,3-.07,3-.11,3-.14,3-.17,3-.2,3-.24,2.95-.27,3-.29,2.95L10.58,325l-.35,2.95-.38,2.94-.4,2.94L9,336.76l-.49,2.87-.46,2.81-.44,2.77-.4,2.73-.39,2.67-.35,2.63-.32,2.57-.28,2.52-.25,2.46-.22,2.4-.17,2.33-.14,2.26L5,370l0,2.12v2l0,2L5.09,378l.14,1.78.19,1.7.24,1.6.3,1.51L6.3,386l.4,1.3.45,1.19.51,1.07.55,1,.61.85.65.74.7.62.76.52.81.42.66.23.65-.11.33-.06,1-.17.32,0,1-.17.32-.06,1-.16.32-.06,1-.17.32-.05,1-.17.32-.06,1-.17.32-.05,1-.17,1.32-.23.81,2.28.49,1.31.49,1.31.51,1.3.52,1.3.53,1.29.55,1.29.57,1.28.58,1.27.61,1.26.63,1.25.65,1.25.68,1.23.7,1.23.73,1.21.76,1.21.79,1.19.82,1.18.85,1.18.89,1.15.93,1.15,1,1.13,1,1.12,1,1.11,1.08,1.09,1.13,1.08,1.18,1.06,1.23,1.05,1.27,1,1.32,1,1.38,1,2.21,1.51-.43,1.2-.09.29-.07.3,0,.3,0,.31v.64l0,.33,0,.34.06.35.09.35.11.35.13.37.16.36.17.38.21.37.22.38.25.39.28.38.3.39.33.39.36.39.38.39.41.39.44.39.47.39.49.38.53.38.55.38.58.38.61.37.62.35,4.29,2.05,4.37,2,4.42,1.9L76,451.4l4.52,1.73,4.57,1.66,4.61,1.57,4.66,1.5,4.71,1.41,4.75,1.34,4.79,1.26,4.83,1.17,4.87,1.1,4.91,1,5,.95,5,.87,5,.79,5.05.71,5.09.64,5.12.57,5.14.49,5.18.41,5.21.34,5.23.27,5.26.2,5.28.12,5.31.05h4.15l5.3-.05,5.29-.12,5.26-.2,5.23-.27,5.2-.34,5.18-.41,5.15-.49,5.12-.57,5.09-.64,5.05-.71,5-.79,5-.87,4.95-.95,4.91-1,4.88-1.1,4.83-1.17,4.79-1.26,4.75-1.34,4.7-1.41,4.66-1.5,4.62-1.57,4.57-1.66,4.52-1.73,4.47-1.82,4.42-1.9,4.37-2,4.29-2.05.61-.35.62-.37.58-.38.55-.38.52-.38.5-.38.47-.39.43-.39.41-.39.39-.39.35-.39.33-.39.31-.39.27-.38.25-.39.23-.38.2-.37.18-.38.16-.36.13-.37.11-.35.08-.35.07-.35.05-.34,0-.33V434l0-.32,0-.31-.05-.3-.06-.3-.09-.29-.44-1.2,2.22-1.51,1.37-1,1.33-1,1.27-1,1.22-1.05,1.18-1.06,1.13-1.08,1.09-1.09,1-1.11,1-1.12,1-1.13.92-1.15.89-1.15.86-1.18.82-1.18.79-1.19.76-1.21.73-1.21.7-1.23.68-1.23.65-1.25.63-1.25.6-1.26.59-1.27.57-1.28.55-1.29.53-1.29.52-1.3.51-1.3.49-1.31.48-1.31.82-2.28,1.32.23,1,.17.33.05,1,.17.32.06,1,.17.32.05,1,.17.32.06,1,.16.32.06,1,.17.32,0,1,.17.32.06.66.11.66-.23.81-.42.76-.52.7-.62.65-.74.61-.85.55-1,.5-1.07.46-1.19.4-1.3.34-1.4.29-1.51.25-1.6.18-1.7.14-1.78.09-1.88,0-2v-2l-.05-2.12-.09-2.19-.14-2.26-.18-2.33-.21-2.4-.25-2.46-.29-2.52-.32-2.57-.35-2.63-.38-2.67-.41-2.73-.43-2.77-.46-2.81-.49-2.87-.43-2.94-.41-2.94-.38-2.94-.35-2.95-.32-2.94-.3-2.95-.26-3-.24-2.95-.2-3-.17-3-.14-3-.11-3-.07-3,0-3v-3l0-3,.08-3,.12-3,.16-3,.2-3,.24-3,.29-3,.33-3,.37-3,.42-3,.47-3,.52-3,.56-3,.61-3,.67-3,.71-3,.77-3.05.58-2.21.55-2.2.52-2.18.5-2.17.45-2.16.42-2.13.38-2.12.34-2.1.29-2.08.24-2.05.18-2,.13-2,.07-2v-1.94l-.06-1.91-.13-1.88-.2-1.84-.27-1.8-.35-1.77-.43-1.73-.52-1.69-.6-1.65-.68-1.61-.78-1.56-.88-1.52-1-1.48-1.08-1.43-1.18-1.39-1.3-1.35-1.4-1.29-1.53-1.25-1.33-1h-.25l-.33,0h-.32l-.33,0h-.64l-.32,0h-.32l-.32,0h-.63l-.32,0h-.31l-.31,0h-.63l-.32,0h-.63l-.31,0h-.32l-.32,0h-.64l-.32,0h-.32l-.33,0h-.66l-.33,0-1.58.06v-2.3l0-1.1.09-1.11.13-1.11.18-1.13.22-1.13.26-1.14.3-1.15.33-1.16.37-1.16.4-1.17.43-1.18.47-1.19.49-1.19.52-1.2.55-1.2.57-1.21.59-1.22.61-1.22.64-1.22.65-1.23.67-1.23.68-1.24.7-1.24.71-1.24.73-1.24.73-1.25.74-1.25.75-1.25.75-1.25.76-1.25.77-1.28,1.22-1.78,1.07-1.74.95-1.74.83-1.73.73-1.73.62-1.72.51-1.72.4-1.7.31-1.68.21-1.67.11-1.65,0-1.63-.07-1.61-.17-1.58-.25-1.55-.33-1.53-.41-1.49-.5-1.46-.57-1.42-.65-1.38-.73-1.34-.79-1.3-.86-1.25-.93-1.2-1-1.15-1.06-1.1-1.12-1-1.18-1-1.23-.92-1.29-.86-1.34-.79-1.39-.73-.72-.32-.74-.34-.74-.33-.72-.34-.71-.34-.71-.34-.69-.34-.68-.33-.67-.34-.66-.34-.66-.34-.64-.34-.63-.34-.62-.34-.61-.34-.6-.34-.59-.34-.58-.34-.56-.34-.56-.34-.55-.34-.54-.34-.53-.34-.51-.34L349.4,91l-.5-.35-.49-.34-.47-.34-.47-.34-.45-.35-.45-.34-1.2-.94.76-1.54.32-.65.3-.64.28-.62.28-.62.25-.6.24-.6.22-.58.2-.57.18-.55.16-.54.14-.53.12-.51.1-.5.07-.48.05-.46,0-.45v-.43l0-.41-.05-.39-.07-.37-.09-.36-.12-.35-.14-.33-.17-.32-.2-.3L348,74l-.26-.3-.3-.28-.34-.28-.37-.27-.4-.24-.72-.35-.77-.38-.77-.38-.76-.38-.76-.38-.75-.38L341,70l-.73-.38-.73-.38-.72-.38-.71-.38-.71-.37-.69-.38-.7-.38-.68-.38-.68-.38-.67-.38-.67-.38-.65-.38-.65-.38-.65-.38-.64-.38-.63-.38-.62-.38-.61-.38-.61-.38-.61-.38-.59-.38-.59-.38-.58-.38-.58-.39-.61-.41-.8-.66-.74-.58-.75-.53-.74-.5-.75-.46-.74-.42-.75-.39-.75-.34-.75-.31L317.2,56l-.75-.23-.76-.2-.76-.17-.76-.13-.76-.09-.77-.06-.76,0-.78,0-.78.05-.78.08-.79.13-.79.16-.8.19-.8.23-.81.27-.81.31-.82.34-.83.39-.83.42-.84.45-.84.5-.82.52-.83.62-.88.65-.89.64-.89.63-.9.62-.9.62-.91.6-.92.58-.92.58-.92.57-.94.55-.94.55-.94.53-1,.51-1,.5-1,.49-1,.48-1,.46-1,.45-1,.43-1,.42-1,.4-1,.38-1,.37-1,.35-1,.33-1.06.32-1.07.3-1.08.28-.53.12c-.75,2.64-1.44,5.44-2.05,8.42q1.26,3.61-.36,5.78Q278,98,267,106.87q.23,1.86.27,3.72l1.17-.15,1.26-.2L271,110l1.25-.29,1.25-.34,1.25-.37,1.25-.42,1.25-.45,1.24-.49,1.24-.52,1.24-.55,1.24-.57,1.23-.61,1.24-.63,1.23-.65,1.23-.68,1.24-.69,1.23-.71,1.23-.73,1.23-.74,1.23-.75L294.5,99l1.23-.77,1.24-.77,1.23-.77,1.24-.78,1.79-1.13,1.57.75,1,.48.94.47.92.48.9.49.87.48.86.5.83.49.82.5.79.5.78.51.75.51.73.52.71.52.69.53.67.53.65.53.63.54.61.54.59.55.57.55.55.55.52.56.51.57.48.57.46.57.45.58.42.58.4.59.37.6.36.59.26.46.1.11.18.18.19.18.21.16.21.16.22.15.23.14.25.13.25.13.26.12.28.11.28.1.3.09.31.09.32.07.34.07.34.06.36,0,.37,0,.38,0,.39,0h1.69l.45,0,.47,0,.47,0,.49-.06.5-.07.51-.08,1.07-.18.89.73.46.41.44.41.41.43.39.43.37.44.35.46.32.46.29.47.27.48.25.49.22.5.19.51.17.52.14.52.12.53.09.54.06.54,0,.55v1.12l0,.57-.07.57-.09.57-.11.58-.14.59-.17.59-.18.59-.21.6-.24.6-.26.61-.28.61-.59,1.21-.6,1.17-.6,1.12-.59,1.08-.6,1-.59,1-.59,1-.59,1-.59.93-.58.91-.57.89-.56.89-.56.87-.55.87-.53.87-.53.87-.52.88-.5.89-.5.9-.48.91-.46.94-.46,1-.44,1-.42,1-.41,1.06-.39,1.11-.38,1.15-.35,1.2-.34,1.25-.32,1.31-.3,1.37-.29,1.44-.43,2.52-.4,2.56-.36,2.59-.32,2.61-.28,2.61-.23,2.62-.2,2.61-.16,2.59-.12,2.58-.08,2.54,0,2.51v2.46l0,2.4.08,2.35.11,2.27.14,2.2.19,2.11.21,2,.26,1.92.29,1.8.32,1.68.35,1.55.39,1.41.41,1.27.44,1.1.46.93.46.74.45.56.42.35.36.19.34.07.57,0h20.81l-.52,2.12-.31,1.26-.15.63-.16.62-.3,1.26L345,228l-.15.63-.31,1.25-.15.63-.16.63-.3,1.26-.16.63-.15.62-.31,1.26-.15.63-.15.63-.31,1.25-.16.63-.15.63-.31,1.26-.15.63-.15.62-.31,1.26-.15.6-.7,3.52-.66,3.54-.62,3.55-.57,3.56-.54,3.57-.49,3.57-.45,3.57-.41,3.59-.37,3.59-.33,3.6-.29,3.61-.24,3.61-.2,3.62-.16,3.63-.12,3.63-.08,3.64,0,3.65v3.65l.05,3.67.09,3.67.13,3.67.17,3.69.22,3.69.26,3.69.29,3.71.35,3.71.38,3.72.42,3.72.47,3.74.51,3.74.55,3.74.74,4.7-1.12.46-.71.3-.24.09-.71.3-.24.09-.71.3-.24.1-.71.29-.24.1-.71.29-.24.1-.71.29-.24.1-.71.29-.24.1-.6.25-.18.12-.27.18-.27.18-.26.19-.27.19-.26.2-.25.21-.25.21-.24.21-.24.22-.23.23-.22.24-.22.24-.21.25-.2.26-.19.27-.18.28-.17.29-.16.3-.15.32-.14.32-.13.34-.12.35-.1.37-.09.39-.07.4-.06.42-.05.43,0,.46v1l0,.58,0,1.6-.1,1.54-.17,1.49-.24,1.44-.3,1.41-.37,1.35-.43,1.32-.5,1.27-.55,1.23-.62,1.19-.67,1.15-.74,1.1-.78,1.07-.84,1-.9,1-.94.95-1,.9-1,.87-1.08.83-1.13.8-1.18.76-1.21.73-1.26.7-1.3.66-1.33.64-1.37.6-1.41.58-1.44.55-1.48.52-1.51.5-1.53.47-1.73.5h-1.1l-.89,0-.84,0-.81.06-.77.07-.73.1-.7.11-.65.14-.62.15-.58.17-.54.19-.5.2-.47.22-.42.23-.39.25-.35.25-.32.28-.29.28-.25.3-.23.31-.19.33-.17.35-.14.36-.12.39-.09.41-.06.44,0,.46v.48l0,.52.06.54.09.56.11.51.1.22.13.34.13.35.13.34.11.34.11.35.1.34.1.35.08.34.08.35.07.34.07.35.05.34.05.35,0,.35,0,.34,0,.35,0,.35v1.39l0,.34,0,.35,0,.35,0,.35-.05.34-.05.35-.07.34-.07.35-.08.35-.26,1-4.17,1.09-3.52.85-3.57.8-3.59.75-3.63.7-3.65.65-3.69.61-3.72.55-3.74.51-3.77.47-3.79.43-3.82.38-3.83.34-3.86.31-3.88.27-3.9.23-3.91.19-3.93.17-3.94.13-4,.1-4,.06-4,0h-8l-1.87,0-1.86,0h-8l-4,0-4-.06-4-.1-3.94-.13-3.93-.17-3.92-.19-3.89-.23-3.88-.27-3.86-.31-3.84-.34-3.81-.38-3.8-.43-3.76-.47-3.75-.51-3.71-.55-3.69-.61-3.66-.65-3.62-.7-3.6-.75-3.56-.8-3.52-.85-4.18-1.09-.25-1-.08-.35L98,423l-.07-.34-.06-.35,0-.34,0-.35,0-.35,0-.35v-.34l0-.35v-.69l0-.35v-.35l0-.35,0-.34,0-.35,0-.35.06-.34.07-.35.07-.34.08-.35.08-.34.1-.35.1-.34.11-.35.11-.34.12-.34.13-.35.14-.34.1-.22.1-.51.09-.56.06-.54,0-.52v-.48l0-.46-.07-.44-.08-.41-.12-.39L99,408.4l-.17-.35-.2-.33-.22-.31-.26-.3-.28-.28-.32-.28-.35-.25-.39-.25-.43-.23-.46-.22-.5-.2-.54-.19-.58-.17-.62-.15-.66-.14-.69-.11-.73-.1-.77-.07-.81-.06-.85,0-.88,0H87.2l-1.73-.5-1.54-.47-1.51-.5L81,402.37l-1.44-.55-1.41-.58-1.37-.6L75.39,400l-1.29-.66-1.26-.7-1.22-.73-1.17-.76-1.13-.8-1.09-.83-1-.87-1-.9-.94-.95-.9-1-.84-1-.79-1.07-.73-1.1-.67-1.15-.62-1.19-.56-1.23-.49-1.27-.43-1.32-.37-1.35-.31-1.41-.23-1.44-.17-1.49L58,375.24l0-1.6,0-.58v-1l0-.46,0-.43-.06-.42-.07-.4-.09-.39-.11-.37-.11-.35-.13-.34-.14-.32-.15-.32L57,368l-.17-.29-.18-.28-.19-.27-.2-.26-.21-.25-.22-.24-.22-.24-.23-.23-.24-.22-.24-.21-.25-.21-.26-.21-.26-.2-.26-.19-.26-.19-.27-.18-.27-.18-.18-.12-.61-.25-.23-.1-.72-.29-.23-.1-.71-.29-.24-.1-.71-.29-.24-.1-.71-.29-.24-.1-.71-.3-.24-.09-.71-.3-.24-.09-.71-.3-1.12-.46.74-4.7.55-3.74.51-3.74.47-3.74.42-3.72.38-3.72.34-3.71.3-3.71.26-3.69.22-3.69.17-3.69L49,315l.09-3.67.05-3.67v-3.65l0-3.65L49,296.76l-.12-3.63-.16-3.63-.2-3.62-.25-3.61L48,278.66l-.33-3.6-.37-3.59-.41-3.59-.45-3.57-.49-3.57-.54-3.57-.58-3.56-.62-3.55-.66-3.54L42.85,243l-.15-.6-.31-1.26-.15-.62-.16-.63-.3-1.26-.16-.63-.15-.63-.31-1.25-.15-.63-.16-.63-.3-1.26-.16-.62-.15-.63-.31-1.26-.15-.63-.15-.63-.31-1.25-.15-.63-.16-.63-.31-1.26-.15-.62-.15-.63-.31-1.26-.52-2.12h20.8l.58,0,.33-.07.37-.19.42-.35.45-.56.46-.74.46-.93.44-1.1.41-1.27.38-1.41.36-1.55.32-1.68.29-1.8.25-1.92.22-2,.18-2.11.15-2.2.11-2.27.07-2.35,0-2.4v-2.46l0-2.51-.08-2.54-.12-2.58-.15-2.59-.2-2.61-.24-2.62-.27-2.61-.32-2.61-.36-2.59-.4-2.56L62,163.77l-.28-1.44-.3-1.37-.32-1.31-.34-1.25-.36-1.2-.37-1.15-.39-1.11-.41-1.06-.43-1-.44-1-.45-1-.47-.94L57,149l-.49-.9-.5-.89-.52-.88L55,145.5l-.54-.87-.54-.87-.56-.87-.57-.89-.57-.89-.58-.91-.58-.93-.59-1-.59-1-.59-1-.6-1-.6-1.08-.59-1.12-.6-1.17-.59-1.21-.28-.61-.26-.61-.24-.6-.21-.6-.19-.59-.16-.59-.14-.59-.11-.58-.09-.57-.07-.57,0-.57v-1.12l0-.55.06-.54.09-.54.12-.53.14-.52.17-.52.19-.51.22-.5.25-.49.27-.48.29-.47.32-.46.35-.46.36-.44.39-.43.42-.43.44-.41.46-.41.89-.73,1.07.18.51.08.5.07.49.06.47,0,.46,0,.46,0h1.68l.4,0,.38,0,.37,0,.36,0,.34-.06.33-.07.33-.07.3-.09.3-.09.29-.1.27-.11.27-.12.25-.13.24-.13.24-.14.22-.15.21-.16.2-.16.2-.18.18-.18.1-.11.26-.46L62,111l.38-.6.4-.59.42-.58.44-.58.47-.57.48-.57.51-.57.52-.56.55-.55.57-.55.58-.55.61-.54.63-.54.65-.53.67-.53.69-.53.72-.52L72,101l.75-.51.78-.51.79-.5.81-.5.84-.49.85-.5.88-.48.9-.49.92-.48.93-.47,1-.48L83,94.81l1.8,1.13,1.24.78,1.23.77,1.23.77,1.24.77,1.23.76,1.23.75,1.23.74,1.23.73,1.23.71,1.23.69,1.24.68,1.23.65,1.24.63L102,106l1.24.57,1.24.55,1.24.52,1.24.49,1.25.45,1.24.42,1.25.37,1.26.34,1.25.29,1.26.26,1.26.2h0c0-1.2.12-2.39.26-3.58q-11-8.85-1.8-19.14-1.63-2.16-.36-5.78-1-4.64-2.15-8.72l-.39-.1-1.07-.3Z"></path>

	<path class="cls-2" d="M67.83,57.12a28.6,28.6,0,0,1,4,.26,33.48,33.48,0,0,1,17.36,8.14,82.29,82.29,0,0,0,16.35,8.9,59,59,0,0,0,7.12,2.29c-.12-.47-.24-.94-.37-1.4-1.4-.3-2.8-.67-4.18-1.09-9-2.73-17.22-7.8-24.28-13.44h0a20.33,20.33,0,0,0-11.74-4,22.85,22.85,0,0,0-4.31.33Zm248.55,0a28.84,28.84,0,0,0-4.06.26A33.52,33.52,0,0,0,295,65.52a82.21,82.21,0,0,1-16.34,8.9A57.83,57.83,0,0,1,270.31,77c.12-.48.24-1,.37-1.44h0a52.53,52.53,0,0,0,5.33-1.33c8.95-2.73,17.22-7.8,24.28-13.44h0a20.33,20.33,0,0,1,11.74-4,22.91,22.91,0,0,1,4.31.33Zm.78,357.21,1.37,1.45C309.9,424,294.16,430,272.38,434.17c-21.26,4.06-48.36,6.37-80.28,7.23-31.92-.86-59-3.17-80.27-7.23C90,430,74.31,424,65.68,415.78l1.37-1.45c8.31,7.92,23.72,13.78,45.16,17.87,21.15,4,48.12,6.34,79.89,7.2,31.78-.86,58.75-3.16,79.9-7.2,21.44-4.09,36.84-9.95,45.16-17.87ZM192.1,464.63c25.19.1,48-2,68.65-6.23,24-4.91,45-12.65,63.15-23a12.06,12.06,0,0,0,3.82-4.21,5.46,5.46,0,0,0,.37-3.16l-.08-.58.47-.35a67.84,67.84,0,0,0,17-18.27,81.79,81.79,0,0,0,7.94-17.09h2.11a84,84,0,0,1-8.35,18.15,69.44,69.44,0,0,1-17.07,18.46,7,7,0,0,1-.6,3.67,13.94,13.94,0,0,1-4.48,5l-.06,0-.05,0c-18.38,10.5-39.58,18.33-63.8,23.29-20.75,4.24-43.72,6.38-69,6.28-25.32.1-48.29-2-69-6.28-24.22-5-45.42-12.79-63.8-23.29l0,0-.06,0a13.94,13.94,0,0,1-4.48-5,7.11,7.11,0,0,1-.61-3.67A69.39,69.39,0,0,1,37,409.85a84.51,84.51,0,0,1-8.36-18.15h2.12a81.28,81.28,0,0,0,7.94,17.09,67.68,67.68,0,0,0,17,18.27l.47.35-.08.58a5.38,5.38,0,0,0,.37,3.16,12.06,12.06,0,0,0,3.82,4.21c18.19,10.39,39.17,18.13,63.15,23,20.62,4.21,43.46,6.33,68.64,6.23Zm0,5.08a332,332,0,0,0,67.73-6,270,270,0,0,0,66.88-22.35,15.77,15.77,0,0,0,4.91-5.12,6.27,6.27,0,0,0,.15-5.6l-.34-.78.72-.46a59.8,59.8,0,0,0,16.44-15.84c4.44-6.28,7.46-13.74,10.12-21.68l2.13.07,1.32.23,1,.17.33.05,1,.17.32.06.42.07c13.37-7.06,7.86-33.58,4-52-1-4.82-1.89-9.1-2.31-12.42a240.52,240.52,0,0,1-1.86-36A253.08,253.08,0,0,1,368.65,255h0a138.2,138.2,0,0,1,3.93-17.6c3.11-11.5,6.21-23,3.05-34.78A42.4,42.4,0,0,0,370.1,191a30.62,30.62,0,0,0-6.88-7.1h-.52l-.32,0h-.64l-.32,0h-.32l-.33,0h-.66l-.33,0-1.58.06-1.23-.05A41.24,41.24,0,0,1,359,169.41a85.16,85.16,0,0,1,5.29-11.8l0-.06,0,0c5.23-7.78,10.85-16.56,13.67-25.6a17.32,17.32,0,0,0,.63-2.61,40.18,40.18,0,0,0-.43-10.12c-1.21-6.51-4.23-10.73-7.83-13.38a20.58,20.58,0,0,0-6-3,22.38,22.38,0,0,1,5.17,5.39,34.14,34.14,0,0,1,5.84,17.08v.07A36.62,36.62,0,0,1,373,137.75a63.42,63.42,0,0,1-8.36,15h0a77.05,77.05,0,0,0-7.67,14A37.22,37.22,0,0,0,354.68,184l-2,.11A38.76,38.76,0,0,1,355.14,166,78.8,78.8,0,0,1,363,151.63l0,0a61.5,61.5,0,0,0,8.09-14.53,34.38,34.38,0,0,0,2.27-11.71,32.2,32.2,0,0,0-5.47-16,19.64,19.64,0,0,0-5.61-5.5,11.24,11.24,0,0,0-6.62-1.78,12.71,12.71,0,0,0-6.54,2.47l-.07,0-.07,0a64.57,64.57,0,0,0-7.34,4.32l-1.48.95c4.54,3.7,7.22,8,7.65,13,.45,5.32-1.69,11.36-6.91,18.28h0A62.63,62.63,0,0,0,326.64,176h0c-1.22,15.17-1.05,25.85.13,33.28.84,5.27,2.18,8.85,3.89,11.2a9.48,9.48,0,0,0,2.07-.55,6,6,0,0,0,3.82-4.39c0-.06,0-.14.05-.22a15.75,15.75,0,0,0-.39-6.2,28.45,28.45,0,0,0-3.64-8l-.05-.07,0-.05c-2.09-4.64-2.78-8.67-2.23-11.64a7.59,7.59,0,0,1,1.24-3.06,5.93,5.93,0,0,1,2.43-2,8.92,8.92,0,0,1,5.34-.41l.13,0,.12.06c4.5,2.17,8,5.85,9.61,12.37,1.56,6.32,1.33,15.35-1.55,28.36v0c-1.94,7.08-3.54,14.24-4.88,21.46s-2.39,14.48-3.26,21.81c-.72,6.15-1.33,12.32-1.78,18.5s-.75,12.4-.83,18.56c-.07,5.74,0,11.56.41,17.47s1,11.89,2,18v0c.46,4.38,1.05,8.74,1.64,13.1a236.28,236.28,0,0,1,2.55,26.36v.05c0,.5,0,.92,0,1.34-.18,6-.3,10-6.81,14.52l-.11.08-.09,0a13.1,13.1,0,0,1-5.79,1.21,4.74,4.74,0,0,1-3.34-1.5,5.5,5.5,0,0,1-1.27-3.46c0-.35,0-.72,0-1.1a53.73,53.73,0,0,1-11.71,12h0a28.9,28.9,0,0,1-9.83,4.64A76.55,76.55,0,0,1,292,410.1h0c-2.68.26-4.34.74-5.1,1.52-.57.59-.55,1.5,0,2.77a2.56,2.56,0,0,0,.6.38,4.08,4.08,0,0,0,1.1.32c2.46.35,6.41-.75,11.39-4a16.75,16.75,0,0,1,1.83-1.45,13.16,13.16,0,0,1,1.85-1.06,7.94,7.94,0,0,1,7.77.23h0q8,4.45-4.27,9.85a111,111,0,0,1-14.73,6,168.25,168.25,0,0,1-17.15,4.61c-23.31,5.06-51.91,7.05-83.12,6.88-31.2.17-59.81-1.82-83.11-6.88a167.55,167.55,0,0,1-17.15-4.61,111,111,0,0,1-14.73-6q-12.24-5.39-4.28-9.85h0a8,8,0,0,1,7.78-.23,13.16,13.16,0,0,1,1.85,1.06,16.75,16.75,0,0,1,1.83,1.45c5,3.25,8.92,4.35,11.38,4a4.26,4.26,0,0,0,1.11-.32,2.3,2.3,0,0,0,.59-.38c.54-1.27.56-2.18,0-2.77-.76-.78-2.42-1.26-5.1-1.52h0a76.55,76.55,0,0,1-12.45-2.26A28.9,28.9,0,0,1,70,403.2h0a54.17,54.17,0,0,1-11.71-12,8.12,8.12,0,0,1,0,1.1A5.44,5.44,0,0,1,57,395.78a4.76,4.76,0,0,1-3.34,1.5,13.1,13.1,0,0,1-5.79-1.21l-.1,0-.1-.08c-6.51-4.54-6.63-8.54-6.81-14.52,0-.42,0-.84,0-1.34v-.05a236.28,236.28,0,0,1,2.55-26.36c.59-4.36,1.18-8.72,1.64-13.1v0c1-6.06,1.58-12,2-18s.49-11.73.42-17.47c-.09-6.16-.38-12.35-.83-18.56s-1.06-12.35-1.79-18.5c-.86-7.33-1.93-14.61-3.26-21.81s-2.94-14.38-4.88-21.46v0c-2.87-13-3.11-22-1.54-28.36,1.61-6.52,5.11-10.2,9.61-12.37l.11-.06.14,0a8.92,8.92,0,0,1,5.34.41,6,6,0,0,1,2.43,2,7.59,7.59,0,0,1,1.24,3.06c.55,3-.14,7-2.23,11.64l0,.05,0,.07a28.45,28.45,0,0,0-3.64,8,15.57,15.57,0,0,0-.39,6.2c0,.08,0,.16,0,.22A6,6,0,0,0,51.47,220a9.73,9.73,0,0,0,2.08.55c1.7-2.35,3-5.93,3.89-11.2,1.18-7.43,1.35-18.11.12-33.28h0a67.68,67.68,0,0,0-5.15-20.2,67.82,67.82,0,0,0-9.15-14.72h0c-5.22-6.92-7.36-13-6.9-18.28.43-5,3.11-9.27,7.65-13l-1.48-.95a64.57,64.57,0,0,0-7.34-4.32l-.08,0-.07,0A12.65,12.65,0,0,0,28.49,102a11.22,11.22,0,0,0-6.62,1.78,19.64,19.64,0,0,0-5.61,5.5,32.21,32.21,0,0,0-5.48,16,34.86,34.86,0,0,0,2.27,11.71,61.94,61.94,0,0,0,8.1,14.53l0,0A80,80,0,0,1,29.07,166a38.76,38.76,0,0,1,2.45,18.14l-2-.11a37.22,37.22,0,0,0-2.33-17.31,77.05,77.05,0,0,0-7.67-14h0a63.42,63.42,0,0,1-8.36-15,36.41,36.41,0,0,1-2.39-12.43v-.07a34.24,34.24,0,0,1,5.84-17.08,22.41,22.41,0,0,1,5.18-5.39,20.45,20.45,0,0,0-6,3c-3.61,2.65-6.62,6.87-7.83,13.38a39.27,39.27,0,0,0-.43,10.12,17.32,17.32,0,0,0,.63,2.61c2.82,9,8.44,17.82,13.67,25.6l0,0,0,.06a84,84,0,0,1,5.28,11.8,41.24,41.24,0,0,1,2.06,14.66l-1.22.05-1.59-.06-.33,0h-.65l-.33,0h-.32l-.32,0h-.64l-.32,0H21a30.62,30.62,0,0,0-6.88,7.1,42.4,42.4,0,0,0-5.53,11.65c-3.16,11.78-.06,23.28,3,34.78A134.85,134.85,0,0,1,15.55,255h0a254.45,254.45,0,0,1,3.64,37.27,240.52,240.52,0,0,1-1.86,36c-.43,3.32-1.31,7.6-2.32,12.42-3.83,18.44-9.33,45,4,52l.42-.07.32-.06,1-.17.32-.05,1-.17,1.32-.23,2.13-.07c2.65,7.94,5.68,15.4,10.12,21.68a59.66,59.66,0,0,0,16.44,15.84l.71.46-.33.78a6.27,6.27,0,0,0,.15,5.6,15.67,15.67,0,0,0,4.91,5.12,269.84,269.84,0,0,0,66.88,22.35,331.93,331.93,0,0,0,67.72,6Zm153.27-78.25h-2.49q7.89-9.94,2.15-31.24v-.06c-1.3-6.24-2.45-12.41-3.37-18.48s-1.61-12.11-2-18h0a292.89,292.89,0,0,1,.58-44.65,364.19,364.19,0,0,1,8-49.73h0q7.28-34.72-4.3-44.66h2.86q10.44,11.55,3.4,45.09v0a360.61,360.61,0,0,0-8,49.45,291.61,291.61,0,0,0-.58,44.35h0c.37,5.85,1.05,11.82,2,17.87s2.06,12.18,3.34,18.32q5.65,21-1.6,31.76Zm-9.69-17.78-5.28,7.46a24.1,24.1,0,0,0-.15-10.51v0l0-.06c-.71-2.15-.39-3.6.42-4.4a3.19,3.19,0,0,1,2.61-.79,3.93,3.93,0,0,1,2.69,1.53c1,1.36,1.27,3.62-.26,6.8ZM324.29,60.16l.43.35.61.41.58.39.58.38.59.38.59.38.61.38.61.38.61.38.62.38.63.38.64.38.65.38.65.38.65.38.67.38.67.38.68.38.68.38.7.38.69.38.71.37.71.38.72.38.71.37c-5.8-.78-12.87,1.48-19.65,4.87-2,1-4,2.12-6,3.29s-3.8,2.37-5.54,3.56h0c-1.74,1.12-3.73,2.42-5.73,3.73-11.16,7.28-22.32,14.57-33.18,18.66q6.23-7.51-1.39-16,1.62-2.16.36-5.78c.19-1,.4-1.88.61-2.79a58.77,58.77,0,0,0,9.56-2.87,84.12,84.12,0,0,0,16.79-9.15l0,0,0,0a31.63,31.63,0,0,1,16.36-7.72,30.74,30.74,0,0,1,11.71.8ZM267,107c12.31-3.77,24.89-12,37.47-20.2,1.82-1.19,3.64-2.38,5.72-3.72h0c1.73-1.18,3.56-2.37,5.44-3.5s3.84-2.22,5.84-3.22c9.88-4.93,20.3-7.42,25.6-.76a5.5,5.5,0,0,1,.25,1.71,10.81,10.81,0,0,1-.28,2.47c-1,4.75-4.88,11-11.34,15.14h0c-6.44,3.87-11.17,7.65-13.15,11.29a8.34,8.34,0,0,0-1.11,3.65l0,0-.42-.58-.45-.58-.46-.57-.48-.57-.45-.5c1.83-4,7.07-8.13,12.26-12.17C338.91,89,346.26,83.28,344.4,77l0-.07,0,0a6,6,0,0,0-.54-1c-1.2-1.7-3.2-2.35-5.84-2.15a28.59,28.59,0,0,0-8.72,2.53c-7.8,3.36-18,9.77-28.46,17.21h0c-8.31,5.24-16.25,9.78-23.39,12.73a49,49,0,0,1-10.18,3.15c0-.79-.11-1.59-.21-2.39Zm50.7-1.54-.22-.2-.59-.55-.61-.54-.63-.54-.65-.53-.67-.53-.69-.53-.71-.52-.73-.52-.75-.51-.78-.51-.79-.5-.82-.5-.83-.49-.86-.5-.87-.48-.9-.49-.92-.48-.94-.47-1-.48-.89-.42c10.4-7.37,20.45-13.71,28.14-17a26.84,26.84,0,0,1,8.08-2.37c1.92-.15,3.31.25,4.06,1.3a2.83,2.83,0,0,1,.3.55c1.4,5-5.38,10.26-12.26,15.62-5.1,4-10.24,8-12.51,12.22Zm27.75-17.32,1.1.87.45.34.45.35.47.34.47.34.49.34.5.35.51.34.51.34.53.34.54.34.55.34.56.34.56.34.58.34.59.34.6.34.61.34.49.27a23.31,23.31,0,0,0-2.91.25c-7.22,1.09-13.63,5.35-19.7,11h0c-3.91,3.43-6.81,5-9,5.3a5.46,5.46,0,0,1-.56,0,5.15,5.15,0,0,1,.46-4.52c1.8-3.3,6.29-6.84,12.45-10.55h0a30.19,30.19,0,0,0,8.64-8.45Zm15.1,9.27.22.11.71.34.71.34.72.34.74.33.74.34.72.32,1.39.73,1.34.79,1.29.86,1.23.92,1.18,1,1.12,1,1.06,1.1.38.43a21.17,21.17,0,0,0-2.51-2.18,24.15,24.15,0,0,0-12.46-4.42,15.61,15.61,0,0,0-11,3,65.7,65.7,0,0,0-7.5,4.41c-4.73,3-9.47,6.12-14,5.9,2.22-.78,4.89-2.48,8.14-5.33l0,0c5.79-5.4,11.88-9.47,18.62-10.48a22.4,22.4,0,0,1,7.16.09Zm5.68,86.4h.23l.32,0h.32l.32,0h.18C380.89,195,383,211.47,379.79,227.85a204.46,204.46,0,0,0-6.85,28.7,214.59,214.59,0,0,0-2.68,27.82h0a258.11,258.11,0,0,0,.81,30.48c.82,10,2.11,19.75,3.6,29.5v0c2.39,13.88,3.34,25.37,2.54,33.92-.74,7.77-2.91,13-6.77,15.34l-.58-.1-.32,0-1-.17-.32-.06-.14,0c12.14-9.06,6.8-34.78,3-52.94-1-4.8-1.89-9.06-2.29-12.27A237.91,237.91,0,0,1,367,292.35a250.93,250.93,0,0,1,3.62-37v0A135.57,135.57,0,0,1,374.52,238c3.18-11.77,6.36-23.54,3-35.85v0a44.62,44.62,0,0,0-5.82-12.21,32.72,32.72,0,0,0-5.48-6.08ZM285.81,424.54l.22-.87.08-.35.07-.35.07-.34.05-.35.05-.34,0-.35,0-.35,0-.35,0-.34v-1.39l0-.35,0-.35,0-.34,0-.35-.05-.35-.05-.34-.07-.35-.07-.34v-.06c.15.09.32.18.49.26a5.86,5.86,0,0,0,1.66.48c2.9.42,7.36-.77,12.81-4.33l.05,0,.08-.08h0a16.21,16.21,0,0,1,1.69-1.34,10.45,10.45,0,0,1,1.56-.89,6,6,0,0,1,5.88.11l0,0q4.51,2.5-4.11,6.3l0,0h0a108.48,108.48,0,0,1-14.47,5.87q-2.88.94-5.93,1.81Zm41.57-56.76.05-.09.18-.28.19-.27.2-.26h0a7.48,7.48,0,0,0,.29,4.21A22.53,22.53,0,0,1,326.15,387c-2.65,5.11-7.14,10-13.13,14.61h0a27.05,27.05,0,0,1-9.15,4.3,74.65,74.65,0,0,1-12.12,2.2h0c-2.89.28-4.85.86-6,1.82a5.62,5.62,0,0,1,2-2.11,15.71,15.71,0,0,1,7.06-1.86h.07c10.28-1.57,17.49-5.11,22.62-10s8.13-11.09,10-18v0a21,21,0,0,0,.43-5.57,38.11,38.11,0,0,0-.58-4.59Zm5.65-4.46.13-.05.71-.29.24-.1.71-.29.24-.1.71-.29.24-.1.71-.3.24-.09.71-.3.24-.09.71-.3c2.75-1.13,2.72,16.4,2.78,19,0,.42,0,.88,0,1.33-.15,5.35-.26,8.93-5.85,12.87a11.21,11.21,0,0,1-4.8,1,2.79,2.79,0,0,1-2-.84,3.55,3.55,0,0,1-.76-2.22,15.06,15.06,0,0,1,1.37-6.08l8-11.36,0,0,0-.09c2-4,1.54-7.05.12-9a5.91,5.91,0,0,0-4.08-2.32l-.44,0Zm13.22-141.89h-6.82a11.84,11.84,0,0,0,4.52-7.19c.71-4-.83-8.44-3.78-13.13l0,0c-3.8-5.46-4.7-8.65-4-10.53.66-1.66,2.82-2.41,5.41-2.91a16,16,0,0,1,5.59,9.23c1.38,5.57,1.28,13.43-.94,24.57Zm-10.32,0h-1.59a7.86,7.86,0,0,0,4.16-5.4c0-.13.05-.24.07-.33v-.06a17.72,17.72,0,0,0-.43-7,30.35,30.35,0,0,0-3.85-8.49c-1.89-4.23-2.54-7.83-2.06-10.4a5.77,5.77,0,0,1,.9-2.26,4,4,0,0,1,1.63-1.33,6.87,6.87,0,0,1,4-.3l.48.25c-2.31.66-4.16,1.72-4.94,3.69-1,2.49-.06,6.3,4.18,12.4h0c2.68,4.27,4.08,8.23,3.47,11.68-.5,2.81-2.37,5.35-6,7.54Zm-10.69-1c-1.22-2-2.14-5-2.8-9-1.06-6.48-1.38-15.47-1.1-27h0c1-11.45,2.79-20.51,5.12-27.71,3.14-9.7,14.32-21.46,15.13-31.36.37-4.55-1.3-8.83-6.08-12.69,1-.51,1.94-1.08,2.91-1.68,4.43,3.46,7.05,7.42,7.45,12,.41,4.83-1.6,10.41-6.49,16.89a64.48,64.48,0,0,0-14.73,36v0c-1.24,15.32-1.06,26.16.15,33.75.79,4.91,2,8.48,3.58,11a21,21,0,0,1-3.13-.25Zm8.45-106.65-.49.08-.31.05.62-.26.18.13ZM38.84,391.46h2.48q-7.87-9.94-2.15-31.24l0-.06c1.3-6.24,2.45-12.41,3.37-18.48s1.61-12.11,2-18h0A295.48,295.48,0,0,0,44,279a364.19,364.19,0,0,0-8-49.73h0q-7.29-34.72,4.29-44.66H37.37Q26.95,196.15,34,229.69v0a360.71,360.71,0,0,1,8,49.45,292.9,292.9,0,0,1,.58,44.35h0c-.37,5.85-1,11.82-2,17.87s-2,12.18-3.33,18.32q-5.67,21,1.6,31.76Zm9.69-17.78,5.28,7.46A24.1,24.1,0,0,1,54,370.63v0l0-.06c.72-2.15.39-3.6-.41-4.4a3.19,3.19,0,0,0-2.61-.79,3.93,3.93,0,0,0-2.69,1.53c-1,1.36-1.27,3.62.26,6.8ZM59.92,60.16l-.43.35-.62.41-.57.39-.58.38-.59.38-.6.38-.6.38-.61.38-.61.38-.63.38-.63.38-.63.38-.65.38-.65.38-.66.38-.66.38-.67.38-.68.38-.69.38-.69.38-.7.38-.7.37-.72.38-.72.38-.71.37c5.81-.78,12.88,1.48,19.66,4.87,2,1,4,2.12,6,3.29s3.8,2.37,5.54,3.56h0c1.73,1.12,3.73,2.42,5.72,3.73C91.42,92,102,99,112.37,103.13q-5.4-7.25,1.9-15.4-1.63-2.16-.36-5.78c-.22-1-.44-2.06-.67-3a59.78,59.78,0,0,1-8.38-2.61,84.12,84.12,0,0,1-16.79-9.15l0,0,0,0a31.63,31.63,0,0,0-16.37-7.72,30.7,30.7,0,0,0-11.7.8Zm55.65,46.29c-11.8-4-23.82-11.82-35.85-19.68-1.82-1.19-3.64-2.38-5.73-3.72h0c-1.73-1.18-3.56-2.37-5.45-3.5s-3.83-2.22-5.83-3.22c-9.88-4.93-20.31-7.42-25.6-.76a5.8,5.8,0,0,0-.26,1.71,11.4,11.4,0,0,0,.28,2.47c1,4.75,4.88,11,11.35,15.14h0c6.44,3.87,11.16,7.65,13.15,11.29a8.34,8.34,0,0,1,1.11,3.65l0,0,.42-.58.44-.58.47-.57.48-.57L65,107c-1.83-4-7.07-8.13-12.26-12.17C45.3,89,38,83.28,39.81,77l0-.07,0,0a4.73,4.73,0,0,1,.54-1c1.2-1.7,3.2-2.35,5.84-2.15A28.59,28.59,0,0,1,55,76.27c7.79,3.36,18,9.77,28.46,17.21h0c8.3,5.24,16.25,9.78,23.39,12.73a53.28,53.28,0,0,0,9.06,2.94q.08-1.14.21-2.28l-.5-.42Zm-49.08-1,.22-.2.58-.55.61-.54.63-.54.65-.53.67-.53.69-.53.72-.52L72,101l.75-.51.78-.51.79-.5.81-.5.84-.49.85-.5.88-.48.9-.49.92-.48.93-.47,1-.48.9-.42c-10.4-7.37-20.46-13.71-28.15-17a26.79,26.79,0,0,0-8.07-2.37C44.16,75.59,42.76,76,42,77a3.48,3.48,0,0,0-.31.55c-1.39,5,5.39,10.26,12.27,15.62,5.1,4,10.24,8,12.51,12.22ZM38.73,88.11,37.64,89l-.45.34-.45.35-.47.34-.48.34-.48.34-.5.35-.51.34-.52.34-.52.34-.54.34-.55.34-.56.34-.57.34-.58.34-.59.34-.59.34-.61.34-.49.27a23.47,23.47,0,0,1,2.91.25c7.21,1.09,13.63,5.35,19.7,11h0c3.91,3.43,6.81,5,9,5.3a5.46,5.46,0,0,0,.56,0,5.12,5.12,0,0,0-.47-4.52c-1.8-3.3-6.28-6.84-12.44-10.55h0a30.36,30.36,0,0,1-8.65-8.45ZM23.64,97.38l-.23.11-.7.34-.71.34-.73.34-.73.33-.74.34-.72.32-1.39.73-1.34.79-1.29.86-1.23.92-1.18,1-1.12,1-1.06,1.1-.38.43a21.17,21.17,0,0,1,2.51-2.18,24.09,24.09,0,0,1,12.45-4.42,15.62,15.62,0,0,1,11.05,3,65.7,65.7,0,0,1,7.5,4.41c4.72,3,9.46,6.12,14,5.9-2.22-.78-4.89-2.48-8.13-5.33l0,0c-5.8-5.4-11.88-9.47-18.63-10.48a22.34,22.34,0,0,0-7.15.09ZM18,183.78h-.23l-.32,0h-.32l-.32,0h-.19C3.32,195,1.17,211.47,4.42,227.85a204.46,204.46,0,0,1,6.85,28.7A216.36,216.36,0,0,1,14,284.37h0a258.11,258.11,0,0,1-.81,30.48c-.83,10-2.11,19.75-3.61,29.5v0C7.14,358.25,6.18,369.74,7,378.29c.73,7.77,2.91,13,6.77,15.34l.58-.1.32,0,1-.17.32-.06.15,0c-12.14-9.06-6.8-34.78-3-52.94,1-4.8,1.88-9.06,2.29-12.27a237.91,237.91,0,0,0,1.85-35.67,250.93,250.93,0,0,0-3.62-37v0A135.62,135.62,0,0,0,9.68,238c-3.17-11.77-6.35-23.54-3-35.85v0a44.6,44.6,0,0,1,5.81-12.21A32.77,32.77,0,0,1,18,183.78ZM98.39,424.54l-.21-.87-.08-.35L98,423l-.07-.34-.06-.35,0-.34,0-.35,0-.35,0-.35v-.34l0-.35v-.69l0-.35v-.35l0-.35,0-.34,0-.35,0-.35.06-.34.07-.35.07-.34v-.06c-.16.09-.32.18-.49.26a6,6,0,0,1-1.66.48c-2.9.42-7.37-.77-12.82-4.33l0,0-.08-.08h0a16.21,16.21,0,0,0-1.69-1.34,11,11,0,0,0-1.56-.89,6,6,0,0,0-5.88.11l0,0q-4.51,2.5,4.1,6.3l0,0h0a107.94,107.94,0,0,0,14.47,5.87c1.92.63,3.9,1.23,5.92,1.81ZM56.83,367.78l0-.09-.18-.28-.19-.27-.2-.26h0a7.48,7.48,0,0,1-.29,4.21A22.53,22.53,0,0,0,58.06,387c2.65,5.11,7.14,10,13.13,14.61h0a27.2,27.2,0,0,0,9.16,4.3,74.45,74.45,0,0,0,12.12,2.2h0c2.88.28,4.85.86,6,1.82a5.62,5.62,0,0,0-2-2.11A15.71,15.71,0,0,0,89.38,406h-.07c-10.29-1.57-17.5-5.11-22.62-10s-8.13-11.09-10-18v0a20.6,20.6,0,0,1-.43-5.57,36.2,36.2,0,0,1,.58-4.59Zm-5.65-4.46-.13-.05-.71-.29-.24-.1-.71-.29-.24-.1-.71-.29-.24-.1-.71-.3-.24-.09-.71-.3-.24-.09-.71-.3c-2.75-1.13-2.72,16.4-2.78,19,0,.42,0,.88,0,1.33.16,5.35.27,8.93,5.85,12.87a11.28,11.28,0,0,0,4.81,1,2.81,2.81,0,0,0,2-.84,3.55,3.55,0,0,0,.75-2.22,15,15,0,0,0-1.36-6.08l-8-11.36,0,0,0-.09c-2-4-1.54-7.05-.12-9a5.89,5.89,0,0,1,4.07-2.32l.45,0ZM38,221.43h6.81a11.87,11.87,0,0,1-4.51-7.19c-.71-4,.83-8.44,3.77-13.13l0,0c3.79-5.46,4.7-8.65,4-10.53-.66-1.66-2.82-2.41-5.41-2.91a16.08,16.08,0,0,0-5.6,9.23c-1.38,5.57-1.27,13.43,1,24.57Zm10.31,0h1.6a7.86,7.86,0,0,1-4.16-5.4l-.08-.33v-.06a17.93,17.93,0,0,1,.44-7,30.58,30.58,0,0,1,3.84-8.49c1.9-4.23,2.55-7.83,2.07-10.4a5.63,5.63,0,0,0-.91-2.26,3.91,3.91,0,0,0-1.62-1.33,6.88,6.88,0,0,0-4-.3l-.48.25c2.31.66,4.15,1.72,4.93,3.69,1,2.49.07,6.3-4.18,12.4h0c-2.67,4.27-4.07,8.23-3.46,11.68.5,2.81,2.37,5.35,6,7.54Zm10.7-1a26,26,0,0,0,2.79-9c1.06-6.48,1.39-15.47,1.11-27h0c-1-11.45-2.79-20.51-5.12-27.71-3.14-9.7-14.33-21.46-15.13-31.36-.38-4.55,1.3-8.83,6.08-12.69-1-.51-1.94-1.08-2.91-1.68-4.44,3.46-7,7.42-7.45,12-.41,4.83,1.6,10.41,6.49,16.89A69.4,69.4,0,0,1,54.25,155a69.69,69.69,0,0,1,5.31,20.81v0c1.24,15.32,1.06,26.16-.15,33.75a30.53,30.53,0,0,1-3.57,11,21,21,0,0,0,3.13-.25ZM50.52,113.77l.49.08.3.05-.61-.26-.18.13Z"></path>
</svg>